<svg width="24" height="24" viewBox="0 0 24 24" fill="none" xmlns="http://www.w3.org/2000/svg">
<path d="M10 3H4C3.44772 3 3 3.44772 3 4V20C3 20.5523 3.44772 21 4 21H10C10.5523 21 11 20.5523 11 20V4C11 3.44772 10.5523 3 10 3Z" stroke="black" stroke-width="2" stroke-linecap="round" stroke-linejoin="round"/>
<path d="M7 3V21" stroke="black" stroke-width="2" stroke-linecap="round" stroke-linejoin="round"/>
<path d="M20.4 18.9002C20.6 19.4002 20.3 20.0002 19.8 20.2002L17.9 20.9002C17.4 21.1002 16.8 20.8002 16.6 20.3002L11.1 5.10024C10.9 4.60024 11.2 4.00024 11.7 3.80024L13.6 3.10024C14.1 2.90024 14.7 3.20024 14.9 3.70024L20.4 18.9002Z" stroke="black" stroke-width="2" stroke-linecap="round" stroke-linejoin="round"/>
</svg>
