<svg width="19" height="19" viewBox="0 0 19 19" fill="none" xmlns="http://www.w3.org/2000/svg">
<path d="M8.29946 11.1826L6.26617 9.14928C6.09478 8.97789 5.88444 8.8922 5.63514 8.8922C5.38585 8.8922 5.16772 8.98568 4.98075 9.17265C4.80936 9.34404 4.72367 9.56217 4.72367 9.82705C4.72367 10.0919 4.80936 10.3101 4.98075 10.4814L7.64507 13.1458C7.81645 13.3171 8.03459 13.4028 8.29946 13.4028C8.56433 13.4028 8.78246 13.3171 8.95385 13.1458L14.2591 7.84049C14.4305 7.6691 14.5162 7.45876 14.5162 7.20947C14.5162 6.96018 14.4227 6.74205 14.2357 6.55508C14.0644 6.38369 13.8462 6.29799 13.5814 6.29799C13.3165 6.29799 13.0983 6.38369 12.927 6.55508L8.29946 11.1826ZM9.60825 18.8483C8.31504 18.8483 7.09974 18.6028 5.96234 18.1117C4.82494 17.6212 3.83556 16.9553 2.9942 16.1139C2.15283 15.2725 1.48691 14.2832 0.996426 13.1458C0.505319 12.0084 0.259766 10.7931 0.259766 9.49985C0.259766 8.20664 0.505319 6.99134 0.996426 5.85394C1.48691 4.71654 2.15283 3.72716 2.9942 2.8858C3.83556 2.04443 4.82494 1.3782 5.96234 0.887093C7.09974 0.396609 8.31504 0.151367 9.60825 0.151367C10.9015 0.151367 12.1168 0.396609 13.2542 0.887093C14.3916 1.3782 15.3809 2.04443 16.2223 2.8858C17.0637 3.72716 17.7296 4.71654 18.2201 5.85394C18.7112 6.99134 18.9567 8.20664 18.9567 9.49985C18.9567 10.7931 18.7112 12.0084 18.2201 13.1458C17.7296 14.2832 17.0637 15.2725 16.2223 16.1139C15.3809 16.9553 14.3916 17.6212 13.2542 18.1117C12.1168 18.6028 10.9015 18.8483 9.60825 18.8483Z" fill="#040404"/>
</svg>
