<svg width="84" height="84" viewBox="0 0 84 84" fill="none" xmlns="http://www.w3.org/2000/svg">
<g clip-path="url(#clip0_135_603)">
<path d="M84 42C84 45.9053 83.4666 49.6865 82.4711 53.2724C81.5311 56.6522 80.1792 59.8604 78.4734 62.8389C78.0272 63.6179 77.5572 64.381 77.0634 65.1283C75.4791 67.5258 73.6545 69.7518 71.6239 71.7718L71.6186 71.7771C70.6522 72.7382 69.6409 73.6518 68.5873 74.5153C67.4704 75.4289 66.3059 76.2871 65.0966 77.0845C58.7488 81.275 51.1943 83.7835 43.0641 83.9842C43.0008 83.9894 42.9347 83.9894 42.8687 83.9894H42.8661C42.8027 83.9921 42.7367 83.9947 42.6707 83.9921C42.4489 83.9974 42.2244 84 42 84C41.7756 84 41.5458 83.9974 41.3214 83.9947H41.2659C41.0204 83.9894 40.7774 83.9842 40.5319 83.9736C32.2195 83.6884 24.5224 80.9898 18.1166 76.5511C18.1034 76.5432 18.0902 76.5326 18.077 76.5247C17.7627 76.3055 17.4485 76.0837 17.1396 75.854C15.8246 74.8876 14.5677 73.8446 13.3742 72.7329C13.3557 72.7145 13.3372 72.6986 13.3187 72.6801C10.908 70.4278 8.76386 67.8929 6.93663 65.1309C6.81516 64.9461 6.69634 64.7639 6.57752 64.5764C4.82686 61.8355 3.38778 58.8782 2.30517 55.7544C0.810637 51.4451 0 46.8189 0 42C0 18.8057 18.8057 0 42 0C65.1943 0 84 18.8057 84 42Z" fill="#F4F3FF"/>
<path d="M69.0389 23.0145C68.6111 22.3835 68.1569 21.7893 67.7265 21.256C64.8193 17.6437 61.656 14.219 58.226 11.1982C59.3587 12.1964 62.9313 20.5325 63.2693 22.9829C63.7314 26.3284 46.2116 31.2952 45.8974 32.9693C48.6383 34.3001 51.0517 36.5445 52.739 39.2643C53.2776 40.133 53.745 41.0492 54.1226 42.0025C58.6168 38.2239 63.3327 34.7437 68.2441 31.5804C69.9129 30.5057 71.2859 29.4838 70.9215 27.1918C70.6918 25.7607 69.9234 24.311 69.0441 23.0172L69.0389 23.0145Z" fill="#7A5AF8"/>
<path d="M17.0815 23.0145C17.5093 22.3835 17.9634 21.7893 18.3938 21.256C21.301 17.6437 24.4644 14.219 27.8944 11.1982C26.7616 12.1964 23.189 20.5325 22.851 22.9829C22.3889 26.3284 39.9087 31.2952 40.223 32.9693C37.4821 34.3001 35.0687 36.5445 33.3814 39.2643C32.8427 40.133 32.3753 41.0492 31.9978 42.0025C27.5036 38.2239 22.7876 34.7437 17.8763 31.5804C16.2075 30.5057 14.8344 29.4838 15.1988 27.1918C15.4285 25.7607 16.1969 24.311 17.0762 23.0172L17.0815 23.0145Z" fill="#6938EF"/>
<path d="M82.4711 53.2719C81.5311 56.6517 80.1791 59.8599 78.4734 62.8384C78.0271 63.6174 77.5571 64.3805 77.0633 65.1278C73.6808 66.0863 70.9004 69.8833 68.5873 74.5148C67.4704 75.4284 66.3059 76.2866 65.0965 77.084C58.7487 81.2745 51.1942 83.783 43.0641 83.9837L45.6069 32.4778C46.2855 32.0474 47.0117 31.6645 47.7748 31.3213C53.3014 28.8392 60.8057 28.591 66.5435 29.9693C65.078 30.339 61.957 31.5616 60.8717 33.3439C73.7733 33.534 80.6808 42.4616 83.3821 47.9776C81.8163 47.7769 80.2504 47.5789 78.6873 47.3782C79.6722 48.2232 81.0875 50.0716 82.4711 53.2719V53.2719Z" fill="#9B8AFB"/>
<path d="M40.1279 32.4778L42.6707 83.9916C42.4489 83.9969 42.2245 83.9995 42 83.9995C41.7756 83.9995 41.5458 83.9969 41.3214 83.9942H41.2659C41.0204 83.9889 40.7774 83.9837 40.5319 83.9731C32.2195 83.6879 24.5225 80.9893 18.1166 76.5506C15.4259 70.6015 12.0566 65.4816 7.75783 64.9403C7.49378 64.9799 7.21917 65.0459 6.93664 65.1304C6.81517 64.9456 6.69635 64.7634 6.57753 64.5759C4.82687 61.835 3.38779 58.8777 2.30518 55.7539C3.95814 50.9984 5.83554 48.4212 7.05018 47.3782C5.48435 47.5789 3.92117 47.7769 2.35535 47.9776C5.05659 42.4616 11.9615 33.534 24.8657 33.3439C23.7805 31.5616 20.6594 30.339 19.1913 29.9693C24.9317 28.591 32.4361 28.8392 37.96 31.3213C38.7231 31.6645 39.4493 32.0474 40.1279 32.4778V32.4778Z" fill="#5925DC"/>
<path d="M42.8661 32.7817V83.9892C42.8027 83.9918 42.7367 83.9945 42.6707 83.9918C42.4489 83.9971 42.2244 83.9997 42 83.9997C41.7756 83.9997 41.5458 83.9971 41.3214 83.9945H41.2659C41.0204 83.9892 40.7774 83.9839 40.5319 83.9733C32.2195 83.6882 24.5224 80.9895 18.1166 76.5508C18.1034 76.5429 18.0902 76.5324 18.0769 76.5244C17.7627 76.3053 17.4485 76.0835 17.1396 75.8537C15.8246 74.8873 14.5677 73.8443 13.3742 72.7327C13.6963 72.2996 13.9921 71.9273 14.2429 71.621L13.3187 72.6799C10.908 70.4275 8.76386 67.8926 6.93662 65.1306C6.81516 64.9458 6.69634 64.7636 6.57751 64.5761C10.1924 54.7323 16.5085 49.6308 16.7039 49.4724L9.28932 53.3407C15.4628 40.6742 26.9174 37.3604 26.9174 37.3604L19.0407 37.2283C26.6877 32.7975 36.2701 32.9296 36.2701 32.9296L30.6907 30.6323C33.7061 30.6904 36.1117 30.9756 37.96 31.3215C41.089 31.9051 42.6337 32.6629 42.8661 32.7817V32.7817Z" fill="#6938EF"/>
<path d="M78.4734 62.8387C78.0271 63.6176 77.5571 64.3807 77.0634 65.128C75.479 67.5256 73.6545 69.7515 71.6239 71.7715L71.4919 71.621C71.5341 71.6712 71.5737 71.7213 71.6186 71.7768C70.6522 72.7379 69.6409 73.6516 68.5873 74.515C67.4704 75.4286 66.3059 76.2868 65.0965 77.0842C58.7488 81.2747 51.1942 83.7832 43.0641 83.9839C43.0007 83.9892 42.9347 83.9892 42.8687 83.9892V32.7817C43.1011 32.6629 44.6458 31.9051 47.7748 31.3215C49.6231 30.9756 52.0287 30.6904 55.0441 30.6323L49.4647 32.9296C49.4647 32.9296 59.0498 32.7975 66.6967 37.2283L58.82 37.3604C58.82 37.3604 70.2746 40.6742 76.4455 53.3407L69.0336 49.4724C69.2052 49.6123 74.7978 54.1223 78.4734 62.8387V62.8387Z" fill="#7A5AF8"/>
<path d="M42.8661 72.3181C51.4643 72.3181 58.4345 65.3478 58.4345 56.7496C58.4345 48.1514 51.4643 41.1812 42.8661 41.1812C34.2678 41.1812 27.2976 48.1514 27.2976 56.7496C27.2976 65.3478 34.2678 72.3181 42.8661 72.3181Z" fill="white"/>
<path d="M42.8661 66.3772C48.1831 66.3772 52.4934 62.0669 52.4934 56.7499C52.4934 51.4329 48.1831 47.1226 42.8661 47.1226C37.5491 47.1226 33.2388 51.4329 33.2388 56.7499C33.2388 62.0669 37.5491 66.3772 42.8661 66.3772Z" fill="#FEB173"/>
<path d="M42.8661 62.0865C45.8134 62.0865 48.2026 59.6973 48.2026 56.75C48.2026 53.8028 45.8134 51.4136 42.8661 51.4136C39.9189 51.4136 37.5297 53.8028 37.5297 56.75C37.5297 59.6973 39.9189 62.0865 42.8661 62.0865Z" fill="#263238"/>
<path d="M53.9747 45.0917C47.2414 38.9473 36.8035 39.4252 30.6616 46.1559C28.1769 48.8782 26.7748 52.2079 26.4315 55.6115C38.5647 51.8224 49.8925 53.4278 59.3033 56.0736C59.0049 52.0125 57.2199 48.0518 53.9747 45.0917V45.0917Z" fill="#5925DC"/>
</g>
<defs>
<clipPath id="clip0_135_603">
<rect width="84" height="84" fill="white"/>
</clipPath>
</defs>
</svg>
