<svg width="84" height="84" viewBox="0 0 84 84" fill="none" xmlns="http://www.w3.org/2000/svg">
<g clip-path="url(#clip0_135_663)">
<path d="M84 42C84 49.9374 81.7977 57.3599 77.9689 63.6918C74.7077 69.0969 70.2583 73.702 64.9851 77.1584C64.6656 77.367 64.3408 77.573 64.016 77.7737C63.3241 78.2014 62.6165 78.6081 61.8956 78.9962C61.7899 79.0543 61.6843 79.1098 61.5787 79.1652C59.9838 80.0102 58.3281 80.7522 56.617 81.3859H56.6144C52.833 82.7906 48.7929 83.6673 44.5838 83.9208C43.8709 83.9657 43.15 83.9894 42.4238 83.9974C42.3736 83.9974 42.3208 83.9974 42.2707 83.9974C42.1809 83.9974 42.0911 83.9974 42.0013 83.9974H41.9617C41.8059 83.9974 41.6528 83.9974 41.4996 83.9974C40.7999 83.9894 40.108 83.963 39.4188 83.9208C35.1939 83.6647 31.1379 82.7854 27.3407 81.37C25.8673 80.8208 24.4334 80.1924 23.0471 79.4874C22.7276 79.3289 22.4134 79.1652 22.1018 78.9962C21.3862 78.6107 20.6811 78.2041 19.992 77.7789C19.646 77.5651 19.3054 77.3485 18.9648 77.1267C13.7153 73.6756 9.28169 69.0785 6.02848 63.6918C2.20226 57.3599 0 49.9374 0 42C0 18.8057 18.8037 0 42.0013 0C65.199 0 84 18.8057 84 42Z" fill="#91C6EE"/>
<path d="M48.447 69.7914V60.708L35.4737 60.708V69.7914C35.4737 69.7914 24.2169 71.2621 18.9647 77.1267C19.3054 77.3485 19.646 77.565 19.9919 77.7789C20.6811 78.204 21.3861 78.6107 22.1017 78.9962C23.7812 79.9019 25.5319 80.6967 27.3407 81.37C31.1379 82.7853 35.1938 83.6646 39.4188 83.9208C40.108 83.963 40.7998 83.9894 41.4996 83.9973C41.6527 83.9973 41.8059 83.9973 41.9617 83.9973H42.0013C42.1412 83.9973 42.2838 83.9973 42.4238 83.9973C43.1499 83.9894 43.8708 83.9656 44.5838 83.9208C48.7929 83.6673 52.833 82.7906 56.6143 81.3859H56.617C58.4416 80.7099 60.2029 79.9098 61.8955 78.9962C62.6164 78.608 63.3241 78.2014 64.0159 77.7736C64.3407 77.573 64.6655 77.367 64.985 77.1584C59.7461 71.2674 48.447 69.7914 48.447 69.7914V69.7914Z" fill="#FDDCAB"/>
<path d="M18.2281 40.8805C18.6955 46.2381 22.0833 46.5603 22.0833 46.5603L22.1335 35.8345C22.1335 35.8345 17.7554 35.5203 18.2281 40.8805Z" fill="#FDDCAB"/>
<path d="M42.0039 14.4014C30.9425 14.4014 21.9777 23.3685 21.9777 34.427V46.0902C21.9777 57.1513 30.9451 66.1158 42.0039 66.1158L42.0039 14.4014Z" fill="#FDDCAB"/>
<path d="M65.6849 40.7194C65.2175 46.077 61.8296 46.3991 61.8296 46.3991L61.7794 35.6734C61.7794 35.6734 66.1575 35.3592 65.6849 40.7194V40.7194Z" fill="#FFEAD5"/>
<path d="M42.0039 14.4014L42.0039 66.1185C53.0654 66.1185 62.0302 57.1513 62.0302 46.0928V34.4297C62.0302 23.3685 53.0627 14.404 42.0039 14.404V14.4014Z" fill="#FFEAD5"/>
<path d="M64.985 77.1584L61.5787 79.1652C59.9837 80.0101 58.3281 80.7521 56.617 81.3858H56.6143C52.833 82.7906 48.7929 83.6672 44.5838 83.9207C43.8708 83.9656 43.1499 83.9894 42.4238 83.9973C42.3736 83.9973 42.3208 83.9973 42.2706 83.9973V77.9875H42.2786C42.3683 77.9875 42.4502 77.9796 42.5426 77.9796C50.1792 77.8211 51.5655 70.1821 51.5655 70.1821C51.7689 70.1953 51.9669 70.2138 52.1623 70.2429C59.9045 71.4364 64.985 77.1584 64.985 77.1584V77.1584Z" fill="#FEC84B"/>
<path d="M42.2706 77.9875V83.9973C42.1808 83.9973 42.0911 83.9973 42.0013 83.9973H41.9617C41.8059 83.9973 41.6527 83.9973 41.4996 83.9973C40.7998 83.9894 40.108 83.963 39.4188 83.9207C35.1938 83.6646 31.1379 82.7853 27.3407 81.37C25.8672 80.8208 24.4334 80.1923 23.0471 79.4873L18.9647 77.1267C18.9647 77.1267 23.8921 71.3677 32.3816 70.2429C32.5796 70.2165 32.7724 70.1953 32.9784 70.1821C32.9784 70.1821 34.3647 77.8211 41.9986 77.9796C42.0911 77.9796 42.1756 77.9875 42.2653 77.9875H42.2706V77.9875Z" fill="#FDB022"/>
<path d="M37.0739 37.9097H30.5701C28.463 37.9097 26.7598 39.4861 26.7598 41.4321C26.7598 43.3782 28.4656 44.9546 30.5701 44.9546H37.0739C39.1785 44.9546 40.8843 43.3755 40.8843 41.4321C40.8843 39.4887 39.1785 37.9097 37.0739 37.9097Z" fill="white"/>
<path d="M36.9578 42.1163H42.0039V40.7485H37.0475L36.9578 42.1163Z" fill="white"/>
<path d="M47.4488 44.9575H53.9526C56.0598 44.9575 57.763 43.3811 57.763 41.435C57.763 39.489 56.0572 37.9126 53.9526 37.9126H47.4488C45.3443 37.9126 43.6384 39.4916 43.6384 41.435C43.6384 43.3785 45.3443 44.9575 47.4488 44.9575Z" fill="white"/>
<path d="M47.0474 40.751H42.0039V42.1188H46.9577L47.0474 40.751Z" fill="white"/>
<path d="M57.4804 9.29966C57.7313 8.11143 57.5781 5.61351 41.8455 6.56673V19.8063C41.8455 19.8063 58.9618 25.6656 63.2792 23.128C63.2792 23.128 62.0091 18.2246 59.8702 15.1906C57.7313 12.1567 57.2322 10.4905 57.4804 9.3023V9.29966Z" fill="#026E78"/>
<path d="M26.2106 9.2998C26.4615 10.4907 25.9598 12.1542 23.8209 15.1881C21.6794 18.2221 20.4119 23.1255 20.4119 23.1255C24.7292 25.6631 41.8429 19.8038 41.8429 19.8038V6.56423C26.1129 5.61365 25.9571 8.11157 26.208 9.29716L26.2106 9.2998Z" fill="#026E78"/>
<path d="M18.2069 26.5081C18.772 27.7861 18.236 29.1512 17.4543 30.2233C16.6701 31.3006 17.8795 33.1912 17.8795 33.1912L17.6841 33.6586C17.1322 34.7227 18.2096 35.4489 18.2096 35.4489C18.2096 35.4489 22.1599 33.3101 26.7968 32.0664C31.4363 30.8253 42.0277 29.8721 42.0277 29.8721V19.8065C32.8358 19.7325 25.1332 22.851 21.608 22.8853C18.0854 22.9196 17.6445 25.2248 18.2096 26.5081H18.2069Z" fill="#015364"/>
<path d="M66.6909 30.2233C65.9066 29.1486 65.3706 27.7861 65.9356 26.5081C66.5007 25.2248 66.0624 22.9223 62.5372 22.8853C59.012 22.851 51.1325 19.7325 41.9406 19.8065V29.8721C41.9406 29.8721 52.7089 30.8253 57.3484 32.0664C61.9853 33.3101 65.9356 35.4489 65.9356 35.4489C65.9356 35.4489 67.013 34.7227 66.4611 33.6586L66.2657 33.1912C66.2657 33.1912 67.4725 31.3006 66.6935 30.2233H66.6909Z" fill="#015364"/>
<path d="M69.1018 39.666C66.6038 39.8429 65.7429 36.5766 65.7429 36.5766C67.7868 29.5581 44.7872 28.824 42.1043 28.7607V28.7554C42.1043 28.7554 42.0568 28.7554 41.9749 28.7554C41.8931 28.7554 41.8455 28.7554 41.8455 28.7554V28.7607C39.1627 28.8214 16.1631 29.5554 18.2069 36.5766C18.2069 36.5766 17.3461 39.8455 14.8481 39.666C12.3501 39.4891 23.4063 42.8504 23.496 36.5766C23.496 36.5766 25.0091 40.004 28.397 40.7275C28.397 40.7275 28.2438 37.6169 31.13 35.9244C31.13 35.9244 34.2802 39.3993 32.9441 41.7176C32.9441 41.7176 40.8817 41.4853 41.9776 36.6822C43.0708 41.4853 51.011 41.7176 51.011 41.7176C49.6749 39.3993 52.8251 35.9244 52.8251 35.9244C55.7087 37.6169 55.5582 40.7275 55.5582 40.7275C58.946 40.004 60.4591 36.5766 60.4591 36.5766C60.5489 42.8531 71.6024 39.4917 69.1044 39.666H69.1018Z" fill="#1F1F24"/>
</g>
<defs>
<clipPath id="clip0_135_663">
<rect width="84" height="84" fill="white"/>
</clipPath>
</defs>
</svg>
