<svg width="84" height="84" viewBox="0 0 84 84" fill="none" xmlns="http://www.w3.org/2000/svg">
<g clip-path="url(#clip0_135_743)">
<path d="M84 42C84 49.9374 81.7977 57.3599 77.9689 63.6918C74.7077 69.097 70.2583 73.702 64.9851 77.1584C64.6656 77.367 64.3408 77.573 64.016 77.7737C63.3241 78.2014 62.6165 78.6081 61.8956 78.9962C60.2029 79.9099 58.4417 80.7099 56.617 81.3859H56.6144C52.833 82.7907 48.7929 83.6673 44.5838 83.9208C43.8709 83.9657 43.15 83.9894 42.4238 83.9974C42.2839 83.9974 42.1413 83.9974 42.0013 83.9974H41.9617C41.8059 83.9974 41.6528 83.9974 41.4996 83.9974C40.7999 83.9894 40.108 83.963 39.4188 83.9208C35.1939 83.6647 31.1379 82.7854 27.3407 81.3701C25.5319 80.6967 23.7812 79.9019 22.1018 78.9962C21.3862 78.6107 20.6811 78.2041 19.992 77.779C19.646 77.5651 19.3054 77.3486 18.9648 77.1267C13.7153 73.6756 9.28169 69.0785 6.02848 63.6918C2.20226 57.3599 0 49.9374 0 42C0 18.8057 18.8037 0 42.0013 0C65.199 0 84 18.8057 84 42Z" fill="#E3E2FC"/>
<path d="M64.985 77.1583C64.6655 77.3669 64.3407 77.5728 64.0159 77.7735C63.3241 78.2013 62.6164 78.6079 61.8955 78.9961C60.2029 79.9097 58.4416 80.7098 56.617 81.3857H56.6143C52.833 82.7905 48.7929 83.6671 44.5838 83.9206C43.8708 83.9655 43.1499 83.9893 42.4238 83.9972C42.2838 83.9972 42.1412 83.9972 42.0013 83.9972H41.9617C41.8059 83.9972 41.6527 83.9972 41.4996 83.9972L41.9511 67.6709H48.447V69.7912C48.447 69.7912 59.7461 71.2673 64.985 77.1583Z" fill="#FB6514"/>
<path d="M45.9358 73.0364L48.4497 69.7912V67.6709H42.4846L45.9358 73.0364Z" fill="#ECEBEE"/>
<path d="M41.9617 84.0001C41.8059 84.0001 41.6528 84.0001 41.4996 84.0001C40.7999 83.9922 40.108 83.9658 39.4188 83.9235C35.1939 83.6674 31.1379 82.7881 27.3408 81.3728C25.5319 80.6995 23.7812 79.9047 22.1018 78.999C21.3862 78.6135 20.6812 78.2068 19.992 77.7817C19.6461 77.5678 19.3054 77.3513 18.9648 77.1295C24.2169 71.2649 35.4738 69.7942 35.4738 69.7942V67.6738H41.9723L42.4238 84.0001C42.2839 84.0001 42.1413 84.0001 42.0013 84.0001H41.9617V84.0001Z" fill="#EC4A0A"/>
<path d="M37.9876 73.0364L35.4738 69.7912V67.6709H41.4362L37.9876 73.0364Z" fill="#ECEBEE"/>
<path d="M18.228 40.8805C18.6954 46.2381 22.0833 46.5603 22.0833 46.5603L22.1335 35.8345C22.1335 35.8345 17.7553 35.5203 18.228 40.8805Z" fill="#FDDCAB"/>
<path d="M42.0039 13.9712C30.9425 13.9712 21.9777 22.9384 21.9777 33.9968V46.0904C21.9777 57.1515 30.9451 66.116 42.0039 66.116V13.9712Z" fill="#FDDCAB"/>
<path d="M65.6875 40.7194C65.2201 46.077 61.8322 46.3991 61.8322 46.3991L61.782 35.6734C61.782 35.6734 66.1602 35.3592 65.6875 40.7194V40.7194Z" fill="#FFEAD5"/>
<path d="M42.004 13.9712V66.1187C53.0654 66.1187 62.0302 57.1515 62.0302 46.093V33.9995C62.0302 22.9384 53.0628 13.9738 42.004 13.9738V13.9712Z" fill="#FFEAD5"/>
<path d="M46.6778 49.5333C42.8199 48.7068 42.004 53.5284 42.004 53.5284C49.2498 58.4239 53.0707 53.0848 53.6252 52.1976C53.0628 52.1447 50.0076 50.2462 46.6805 49.5333H46.6778Z" fill="black"/>
<path d="M37.3328 49.5304C41.188 48.6881 42.0225 53.5097 42.0225 53.5097C34.7952 58.4316 30.9531 53.1057 30.3986 52.2211C30.961 52.1657 34.0083 50.2566 37.3354 49.5304H37.3328Z" fill="black"/>
<path d="M22.7012 43.8008L21.8826 45.0101C23.1633 73.3217 42.0093 71.307 42.0093 71.307V63.6733C24.0268 67.5099 22.7012 43.8008 22.7012 43.8008Z" fill="black"/>
<path d="M42.0093 63.6733V71.307C42.0093 71.307 61.1404 73.3217 62.4211 45.0101L61.6025 43.8008C61.6025 43.8008 59.9917 67.5126 42.0093 63.6733V63.6733Z" fill="#2F3030"/>
<path d="M32.8569 45.6071C36.6487 45.6071 39.7225 42.5334 39.7225 38.7418C39.7225 34.9502 36.6487 31.8765 32.8569 31.8765C29.0652 31.8765 25.9914 34.9502 25.9914 38.7418C25.9914 42.5334 29.0652 45.6071 32.8569 45.6071Z" fill="black"/>
<path d="M32.8569 44.3393C35.9486 44.3393 38.455 41.8331 38.455 38.7414C38.455 35.6498 35.9486 33.1436 32.8569 33.1436C29.7652 33.1436 27.2589 35.6498 27.2589 38.7414C27.2589 41.8331 29.7652 44.3393 32.8569 44.3393Z" fill="white"/>
<path d="M51.1748 45.6071C54.9665 45.6071 58.0403 42.5334 58.0403 38.7418C58.0403 34.9502 54.9665 31.8765 51.1748 31.8765C47.383 31.8765 44.3092 34.9502 44.3092 38.7418C44.3092 42.5334 47.383 45.6071 51.1748 45.6071Z" fill="black"/>
<path d="M51.1748 44.3393C54.2665 44.3393 56.7728 41.8331 56.7728 38.7414C56.7728 35.6498 54.2665 33.1436 51.1748 33.1436C48.0831 33.1436 45.5767 35.6498 45.5767 38.7414C45.5767 41.8331 48.0831 44.3393 51.1748 44.3393Z" fill="white"/>
<path d="M63.0407 35.835L57.2263 38.5363L56.7133 37.4324L61.4238 35.2439C62.0321 34.9613 62.7581 35.2267 63.0407 35.835Z" fill="black"/>
<path d="M22.5452 35.3576L27.2557 37.5461L26.7428 38.65L20.9283 35.9487C21.2109 35.3404 21.9369 35.075 22.5452 35.3576Z" fill="black"/>
<path d="M44.9561 38.042H39.0464V39.0665H44.9561V38.042Z" fill="black"/>
</g>
<defs>
<clipPath id="clip0_135_743">
<rect width="84" height="84" fill="white"/>
</clipPath>
</defs>
</svg>
