<svg width="84" height="84" viewBox="0 0 84 84" fill="none" xmlns="http://www.w3.org/2000/svg">
<g clip-path="url(#clip0_135_766)">
<path d="M84 42C84 45.9053 83.4666 49.6865 82.4711 53.2724C81.5311 56.6522 80.1792 59.8604 78.4734 62.8389C78.0272 63.6179 77.5572 64.381 77.0634 65.1283C75.4791 67.5258 73.6545 69.7518 71.6239 71.7718L71.6186 71.7771C70.7763 72.6168 69.897 73.4168 68.9887 74.1773C68.8567 74.2935 68.722 74.4044 68.5873 74.5153C67.4704 75.4289 66.3059 76.2871 65.0966 77.0845C58.7488 81.275 51.1943 83.7835 43.0641 83.9842C43.0008 83.9894 42.9347 83.9894 42.8687 83.9894C42.8054 83.9921 42.7393 83.9947 42.6733 83.9921C42.4515 83.9974 42.2271 84 42.0026 84C41.7782 84 41.5485 84 41.324 83.9947H41.2686C41.2052 83.9947 41.1392 83.9947 41.0758 83.9894C40.8963 83.9894 40.7167 83.9815 40.5345 83.9736C32.2222 83.6884 24.5251 80.9898 18.1192 76.5511C18.106 76.5432 18.0928 76.5326 18.0796 76.5247C17.7654 76.3055 17.4512 76.0837 17.1422 75.854C15.8272 74.8876 14.5704 73.8446 13.3768 72.7329C13.3584 72.7145 13.3399 72.6986 13.3214 72.6801C13.2659 72.63 13.2105 72.5771 13.1577 72.5243C10.8129 70.3116 8.72426 67.8295 6.93927 65.1309C6.81781 64.9461 6.69898 64.7639 6.58016 64.5764C4.8295 61.8355 3.39042 58.8782 2.30781 55.7544C0.810637 51.4451 0 46.8189 0 42C0 18.8057 18.8057 0 42 0C65.1943 0 84 18.8057 84 42Z" fill="#C6E4F6"/>
<path d="M42 25.2803C48.4957 25.2803 53.7635 30.5481 53.7635 37.0438C53.7635 43.5394 30.2365 43.5394 30.2365 37.0438C30.2365 30.5481 35.5043 25.2803 42 25.2803Z" fill="white"/>
<path d="M42 25.2803C35.5043 25.2803 30.2365 30.5481 30.2365 37.0438H42V25.2803Z" fill="#EAEAEA"/>
<path d="M42 57.3733C37.181 57.3733 33.2731 53.4654 33.2731 48.6464C33.2731 43.8275 50.7242 43.8275 50.7242 48.6464C50.7242 53.4654 46.8163 57.3733 41.9973 57.3733H42Z" fill="#302D2D"/>
<path d="M42 57.3734C46.8189 57.3734 50.7269 53.4654 50.7269 48.6465H42V57.3734Z" fill="#3E3A39"/>
<path d="M53.6288 51.2022H30.3395C25.5152 49.338 21.5175 46.341 18.4545 42.5809C17.6676 41.6145 18.1746 39.8374 19.2335 39.8374H64.7665C65.8253 39.8374 66.3297 41.6145 65.5454 42.5809C62.4824 46.341 58.453 49.3406 53.6288 51.2022Z" fill="#C93F09"/>
<path d="M65.5455 42.5809C62.4825 46.341 58.453 49.3406 53.6288 51.2022H42V39.8374H64.7665C65.8254 39.8374 66.3297 41.6145 65.5455 42.5809Z" fill="#EC4A0A"/>
<path d="M35.4384 35.1006H48.5617C54.0461 35.1006 59.4486 35.8637 63.8661 37.3873C65.2815 37.8758 66.5278 38.4118 67.5708 38.9874H16.4293C17.4723 38.4118 18.7186 37.8758 20.134 37.3873C24.5515 35.8637 29.954 35.1006 35.4384 35.1006Z" fill="#D77131"/>
<path d="M71.4655 42.5439L12.8223 42.5439C11.8268 42.5439 11.0215 41.7359 11.0215 40.7431C11.0215 39.774 11.8084 38.9872 12.7774 38.9872L71.5104 38.9872C72.4794 38.9872 73.2663 39.774 73.2663 40.7431C73.2663 41.7386 72.4583 42.5439 71.4655 42.5439Z" fill="#3E3A39"/>
<path d="M42 38.9874V35.1006H48.5617C54.046 35.1006 59.4485 35.8637 63.8661 37.3873C65.2814 37.8758 66.5277 38.4118 67.5707 38.9874H42Z" fill="#FD853A"/>
<path d="M42 38.9875V42.5443H12.8144C11.8242 42.5443 11.0215 41.7416 11.0215 40.7514V40.7408C11.0215 39.7717 11.8084 38.9849 12.7774 38.9849H42V38.9875Z" fill="#302D2D"/>
<path d="M46.6631 41.7889C47.2275 41.7889 47.685 41.3314 47.685 40.767C47.685 40.2026 47.2275 39.7451 46.6631 39.7451C46.0987 39.7451 45.6412 40.2026 45.6412 40.767C45.6412 41.3314 46.0987 41.7889 46.6631 41.7889Z" fill="white"/>
<path d="M56.3987 41.7889C56.9631 41.7889 57.4206 41.3314 57.4206 40.767C57.4206 40.2026 56.9631 39.7451 56.3987 39.7451C55.8343 39.7451 55.3768 40.2026 55.3768 40.767C55.3768 41.3314 55.8343 41.7889 56.3987 41.7889Z" fill="white"/>
<path d="M66.1369 41.7889C66.7013 41.7889 67.1588 41.3314 67.1588 40.767C67.1588 40.2026 66.7013 39.7451 66.1369 39.7451C65.5726 39.7451 65.1151 40.2026 65.1151 40.767C65.1151 41.3314 65.5726 41.7889 66.1369 41.7889Z" fill="white"/>
<path d="M17.4512 41.7889C18.0156 41.7889 18.4731 41.3314 18.4731 40.767C18.4731 40.2026 18.0156 39.7451 17.4512 39.7451C16.8868 39.7451 16.4293 40.2026 16.4293 40.767C16.4293 41.3314 16.8868 41.7889 17.4512 41.7889Z" fill="#EAEAEA"/>
<path d="M27.1894 41.7889C27.7537 41.7889 28.2112 41.3314 28.2112 40.767C28.2112 40.2026 27.7537 39.7451 27.1894 39.7451C26.625 39.7451 26.1675 40.2026 26.1675 40.767C26.1675 41.3314 26.625 41.7889 27.1894 41.7889Z" fill="#EAEAEA"/>
<path d="M36.9249 41.7889C37.4893 41.7889 37.9468 41.3314 37.9468 40.767C37.9468 40.2026 37.4893 39.7451 36.9249 39.7451C36.3605 39.7451 35.903 40.2026 35.903 40.767C35.903 41.3314 36.3605 41.7889 36.9249 41.7889Z" fill="#EAEAEA"/>
</g>
<defs>
<clipPath id="clip0_135_766">
<rect width="84" height="84" fill="white"/>
</clipPath>
</defs>
</svg>
