<svg width="84" height="84" viewBox="0 0 84 84" fill="none" xmlns="http://www.w3.org/2000/svg">
<g clip-path="url(#clip0_135_684)">
<path d="M84 42C84 49.9374 81.7977 57.3599 77.9689 63.6918C75.8458 67.2116 73.2184 70.3934 70.187 73.1369C68.2805 74.8638 66.2156 76.4191 64.016 77.7737C63.3241 78.2014 62.6165 78.6081 61.8956 78.9962C60.2029 79.9099 58.4417 80.7099 56.617 81.3859H56.6144C52.833 82.7907 48.7929 83.6673 44.5838 83.9208C43.7309 83.9736 42.8701 84 42.0013 84H41.9617C41.1062 84 40.2585 83.9736 39.4188 83.9208C35.1939 83.6647 31.1379 82.7854 27.3407 81.3701C25.5319 80.6967 23.7812 79.9019 22.1018 78.9962C21.3862 78.6107 20.6811 78.2041 19.992 77.779C17.7897 76.4217 15.7221 74.8665 13.813 73.1369C10.7842 70.3934 8.15416 67.2116 6.02848 63.6918C2.20226 57.3599 0 49.9374 0 42C0 18.8057 18.8037 0 42.0013 0C65.199 0 84 18.8057 84 42Z" fill="#FD853A"/>
<path d="M42.0383 17.219V83.921H39.4188C35.1939 83.6648 31.1379 82.7855 27.3408 81.3702C25.532 80.6969 23.7812 79.9021 22.1018 78.9964C21.3862 78.6109 20.6812 78.2042 19.992 77.7791C17.7897 76.4219 15.7221 74.8666 13.813 73.1371C14.188 48.6437 16.855 32.7029 22.5718 25.2461C33.7363 10.681 41.6 17.219 41.6 17.219H42.0383V17.219Z" fill="black"/>
<path d="M70.187 73.1371C68.2805 74.864 66.2155 76.4193 64.0159 77.7738C63.3241 78.2016 62.6164 78.6082 61.8955 78.9964C60.2029 79.91 58.4416 80.7101 56.617 81.3861H56.6143C52.833 82.7908 48.7929 83.6675 44.5838 83.921H41.9617V17.219H42.4C42.4 17.219 50.2637 10.681 61.4281 25.2461C67.145 32.7029 69.812 48.6437 70.187 73.1371Z" fill="black"/>
<path d="M45.8486 64.125H38.0747V71.8881H45.8486V64.125Z" fill="#FDDCAB"/>
<path d="M42.0726 71.8882V83.921H39.4188C35.1939 83.6649 31.1379 82.7856 27.3407 81.3703C25.5319 80.6969 23.7812 79.9021 22.1018 78.9964C21.3862 78.6109 20.6811 78.2043 19.9919 77.7792C22.8121 75.8041 26.9658 73.8237 33.0154 72.6354C33.0154 72.6354 33.0444 72.6302 33.0946 72.6196C33.6412 72.514 34.2063 72.4136 34.7846 72.3186C35.8276 72.1522 36.9234 72.007 38.0747 71.8882H42.0726V71.8882Z" fill="#FDDCAB"/>
<path d="M64.0159 77.7739C63.324 78.2017 62.6163 78.6083 61.8955 78.9964C60.2028 79.9101 58.4416 80.7101 56.6169 81.3861H56.6143C52.8329 82.7909 48.7928 83.6675 44.5837 83.921H42.0725V71.8882H45.8459C47.0051 72.007 48.1116 72.1549 49.1652 72.3239C49.7725 72.4216 50.3613 72.5272 50.9343 72.6407C56.9787 73.829 61.1614 75.8041 64.0159 77.7739V77.7739Z" fill="#FFEAD5"/>
<path d="M41.9854 80.9608V84H41.9617C41.1061 84 40.2585 83.9736 39.4188 83.9208C35.1938 83.6646 31.1379 82.7854 27.3407 81.37C29.2525 78.2357 32.2892 73.3297 33.0153 72.6352C33.0153 72.6352 33.0444 72.6299 33.0946 72.6194C33.3692 72.5613 34.2907 72.3738 34.7845 72.3184C34.7845 72.3184 31.9036 80.6228 41.9617 80.9608H41.9854Z" fill="#97F8C0"/>
<path d="M56.6143 81.3859C52.833 82.7906 48.7929 83.6673 44.5838 83.9208C43.7309 83.9736 42.87 84 42.0013 84H41.9617V80.9608H41.9854C42.0145 80.9581 42.0435 80.9581 42.0726 80.9555C51.8824 80.5805 49.2418 72.5534 49.1652 72.3236C49.1626 72.321 49.1626 72.3184 49.1626 72.3184C49.7488 72.3844 50.9291 72.6352 50.9291 72.6352L50.9344 72.6405C51.6685 73.3534 54.7078 78.2569 56.6143 81.3859V81.3859Z" fill="#CAFBDA"/>
<path d="M18.228 40.88C18.6953 46.2376 22.0832 46.5598 22.0832 46.5598L22.1334 35.834C22.1334 35.834 17.7553 35.5198 18.228 40.88Z" fill="#FDDCAB"/>
<path d="M21.9775 23.915V46.0901C21.9775 57.1512 30.945 66.1157 42.0038 66.1157V23.915H21.9775Z" fill="#FDDCAB"/>
<path d="M65.6874 40.7194C65.22 46.077 61.8322 46.3991 61.8322 46.3991L61.782 35.6734C61.782 35.6734 66.1601 35.3592 65.6874 40.7194V40.7194Z" fill="#FFEAD5"/>
<path d="M42.0039 23.915V66.1184C53.0654 66.1184 62.0302 57.1512 62.0302 46.0927V23.915H42.0039Z" fill="#FFEAD5"/>
<path d="M63.4614 29.6159C63.4614 30.6853 63.3822 31.7415 63.229 32.7687H20.9161C20.7629 31.7415 20.6837 30.6853 20.6837 29.6159C20.6837 28.1187 20.8369 26.6559 21.13 25.2432C23.15 15.5288 31.7557 8.2251 42.0725 8.2251C52.3894 8.2251 60.9977 15.5288 63.0151 25.2432C63.3109 26.6559 63.464 28.1161 63.464 29.6159H63.4614Z" fill="#CAFBDA"/>
<path d="M21.9089 29.1798C20.0869 31.7755 21.9776 35.8286 21.9776 35.8286L34.6392 31.1497C34.6392 31.1497 23.7309 26.5842 21.9089 29.1772V29.1798Z" fill="black"/>
<path d="M63.501 25.2456H20.5781C19.4362 25.2456 18.5105 26.1713 18.5105 27.3131V30.7035C18.5105 31.8454 19.4362 32.7711 20.5781 32.7711H63.501C64.6429 32.7711 65.5686 31.8454 65.5686 30.7035V27.3131C65.5686 26.1713 64.6429 25.2456 63.501 25.2456Z" fill="#97F8C0"/>
</g>
<defs>
<clipPath id="clip0_135_684">
<rect width="84" height="84" fill="white"/>
</clipPath>
</defs>
</svg>
