<svg width="84" height="84" viewBox="0 0 84 84" fill="none" xmlns="http://www.w3.org/2000/svg">
<g clip-path="url(#clip0_135_584)">
<path d="M84 42C84 49.9374 81.7977 57.3599 77.9689 63.6918C74.5097 69.4244 69.7144 74.2592 64.016 77.7737C63.3241 78.2014 62.6165 78.6081 61.8956 78.9962C60.2029 79.9099 58.4417 80.7099 56.617 81.3859H56.6144C52.833 82.7907 48.7929 83.6673 44.5838 83.9208C43.7309 83.9736 42.8701 84 42.0013 84H41.9617C41.1062 84 40.2585 83.9736 39.4188 83.9208C35.1939 83.6647 31.1379 82.7854 27.3407 81.3701C25.5319 80.6967 23.7812 79.9019 22.1018 78.9962C21.3862 78.6107 20.6811 78.2041 19.992 77.779C14.2909 74.2644 9.49294 69.427 6.02848 63.6918C2.20226 57.3599 0 49.9374 0 42C0 18.8057 18.8037 0 42.0013 0C65.199 0 84 18.8057 84 42Z" fill="#C6E4F6"/>
<path d="M22.5718 25.2456C16.0548 33.7454 13.4987 53.272 13.7892 56.4591H42.0409V17.2185H41.5999C41.5999 17.2185 33.7389 10.6806 22.5718 25.2456V25.2456Z" fill="black"/>
<path d="M61.4282 25.2456C67.9452 33.7454 70.5013 53.272 70.2108 56.4591H41.959V17.2185H42.4C42.4 17.2185 50.2611 10.6806 61.4282 25.2456V25.2456Z" fill="black"/>
<path d="M45.8486 64.125H38.0747V71.8881H45.8486V64.125Z" fill="#FDDCAB"/>
<path d="M42.0726 71.8882V83.921H39.4188C35.1939 83.6649 31.1379 82.7856 27.3407 81.3703C25.5319 80.6969 23.7812 79.9021 22.1018 78.9964C21.3862 78.6109 20.6811 78.2043 19.9919 77.7792C22.8121 75.8041 26.9658 73.8237 33.0154 72.6354C33.0154 72.6354 33.0444 72.6302 33.0946 72.6196C33.6412 72.514 34.2063 72.4136 34.7846 72.3186C35.8276 72.1522 36.9234 72.007 38.0747 71.8882H42.0726V71.8882Z" fill="#FDDCAB"/>
<path d="M64.0159 77.7739C63.3241 78.2017 62.6164 78.6083 61.8955 78.9964C60.2029 79.9101 58.4416 80.7101 56.617 81.3861H56.6143C52.833 82.7909 48.7929 83.6675 44.5838 83.921H42.0726V71.8882H45.846C47.0052 72.007 48.1116 72.1549 49.1652 72.3239C49.7725 72.4216 50.3614 72.5272 50.9344 72.6407C56.9787 73.829 61.1614 75.8041 64.0159 77.7739V77.7739Z" fill="#FFEAD5"/>
<path d="M41.9854 80.9603V83.9995H41.9617C41.1061 83.9995 40.2585 83.9731 39.4188 83.9203C35.1938 83.6642 31.1379 82.7849 27.3407 81.3695C29.2525 78.2353 32.2892 73.3292 33.0153 72.6347C33.0153 72.6347 33.0444 72.6294 33.0946 72.6189C33.3692 72.5608 34.2907 72.3733 34.7845 72.3179C34.7845 72.3179 31.9036 80.6223 41.9617 80.9603H41.9854Z" fill="#001033"/>
<path d="M56.6143 81.3854C52.833 82.7901 48.7929 83.6668 44.5838 83.9203C43.7309 83.9731 42.87 83.9995 42.0013 83.9995H41.9617V80.9603H41.9854C42.0145 80.9576 42.0435 80.9576 42.0726 80.955C51.8824 80.58 49.2418 72.5529 49.1652 72.3231C49.1626 72.3205 49.1626 72.3179 49.1626 72.3179C49.7488 72.3839 50.9291 72.6347 50.9291 72.6347L50.9344 72.64C51.6685 73.353 54.7078 78.2564 56.6143 81.3854V81.3854Z" fill="#022859"/>
<path d="M18.228 40.88C18.6954 46.2376 22.0833 46.5598 22.0833 46.5598L22.1335 35.834C22.1335 35.834 17.7553 35.5198 18.228 40.88Z" fill="#FDDCAB"/>
<path d="M21.9776 23.915V46.0901C21.9776 57.1512 30.9451 66.1157 42.0039 66.1157V23.915H21.9776Z" fill="#FDDCAB"/>
<path d="M65.6874 40.7194C65.22 46.077 61.8322 46.3991 61.8322 46.3991L61.782 35.6734C61.782 35.6734 66.1601 35.3592 65.6874 40.7194V40.7194Z" fill="#FFEAD5"/>
<path d="M42.0039 23.915V66.1184C53.0654 66.1184 62.0302 57.1512 62.0302 46.0927V23.915H42.0039Z" fill="#FFEAD5"/>
<path d="M63.4614 29.6159C63.4614 30.6853 63.3822 31.7415 63.2291 32.7687H20.9161C20.763 31.7415 20.6838 30.6853 20.6838 29.6159C20.6838 28.1187 20.8369 26.6559 21.13 25.2432C23.1501 15.5288 31.7558 8.2251 42.0726 8.2251C52.3894 8.2251 60.9978 15.5288 63.0152 25.2432C63.3109 26.6559 63.4641 28.1161 63.4641 29.6159H63.4614Z" fill="#001033"/>
<path d="M21.909 29.1803C20.087 31.7759 21.9777 35.8291 21.9777 35.8291L34.6393 31.1501C34.6393 31.1501 23.731 26.5847 21.909 29.1777V29.1803Z" fill="black"/>
<path d="M63.501 25.2461H20.5781C19.4362 25.2461 18.5105 26.1718 18.5105 27.3136V30.704C18.5105 31.8459 19.4362 32.7716 20.5781 32.7716H63.501C64.6429 32.7716 65.5686 31.8459 65.5686 30.704V27.3136C65.5686 26.1718 64.6429 25.2461 63.501 25.2461Z" fill="#022859"/>
</g>
<defs>
<clipPath id="clip0_135_584">
<rect width="84" height="84" fill="white"/>
</clipPath>
</defs>
</svg>
