<svg width="84" height="84" viewBox="0 0 84 84" fill="none" xmlns="http://www.w3.org/2000/svg">
<g clip-path="url(#clip0_135_216)">
<path d="M84 42C84 56.6654 76.4851 69.5722 65.0966 77.0845C58.4715 81.4572 50.5341 84 42 84C41.5089 84 41.0204 83.9921 40.5319 83.9736C32.2037 83.6884 24.4908 80.9793 18.077 76.5247C7.15315 68.9412 0 56.3063 0 42C0 18.8057 18.8057 0 42 0C65.1943 0 84 18.8057 84 42Z" fill="#E4FFF0"/>
<path d="M33.5055 32.7292C32.4994 31.3562 14.5545 34.4535 13.5247 31.2347C12.7695 28.8794 12.384 19.8198 12.9755 18.4282C11.1879 22.6346 9.81743 27.0917 8.75594 31.6044C8.60015 32.2724 8.447 33.0039 8.33346 33.759C8.10109 35.3064 8.03244 36.9461 8.447 38.335C9.10977 40.561 10.7891 40.8884 12.759 41.134C18.5549 41.8628 24.3112 42.9612 29.9962 44.4241C29.9249 43.4022 29.9487 42.375 30.0596 41.3584C30.4055 38.1766 31.6096 35.111 33.5055 32.7266V32.7292Z" fill="#29609B"/>
<path d="M74.8956 33.5031C74.782 32.7479 74.6315 32.0165 74.4757 31.3484C73.4195 26.8332 72.0544 22.376 70.272 18.167C70.8609 19.5585 70.4674 28.6181 69.7096 30.9735C68.6745 34.1896 50.7349 31.0738 49.7262 32.4469C51.6194 34.8339 52.8209 37.9022 53.1641 41.084C53.2724 42.1006 53.2962 43.1278 53.2249 44.1496C58.9125 42.6921 64.6715 41.5989 70.4674 40.878C72.4372 40.6325 74.1166 40.3077 74.782 38.0817C75.1966 36.6928 75.1306 35.0504 74.9008 33.5057L74.8956 33.5031Z" fill="#5494CD"/>
<path d="M66.8261 51.9675C68.0777 57.6156 68.5107 63.5251 68.1067 69.3949C67.3515 68.9619 66.5964 68.5315 65.8385 68.0984C65.7963 71.1007 65.5481 74.1082 65.0966 77.0841C58.4715 81.4568 50.5341 83.9996 42 83.9996C41.5088 83.9996 41.0204 83.9917 40.5319 83.9732V27.997C40.5319 27.997 43.8246 23.6956 50.7559 24.2606C49.7235 24.7518 47.5794 26.1486 46.9958 27.7303C50.1539 26.8668 53.1614 27.5692 55.3557 29.1192C54.1992 29.3648 53.2882 30.2229 53.2195 30.7827C54.9174 31.1339 56.5835 31.6541 58.1943 32.3274C60.7133 33.3783 63.1003 34.8121 65.2682 36.5813C64.0958 36.6262 62.9234 36.6711 61.751 36.7159C63.5043 37.891 64.9962 39.5387 66.0841 41.4926C66.2029 41.7012 66.3138 41.9151 66.4221 42.1316C65.8201 41.8438 65.1256 41.7963 64.484 41.9996C67.3014 45.1761 69.2554 49.3244 70.0422 53.7895C68.9702 53.1822 67.8981 52.5749 66.8261 51.9675V51.9675Z" fill="#08BED0"/>
<path d="M40.5318 27.9975V83.9737C32.2036 83.6885 24.4907 80.9794 18.0769 76.5248C17.1025 72.8915 16.5507 69.097 16.445 65.2683C16.4371 64.9805 16.1044 64.8881 15.9724 65.1389C15.7928 65.4822 15.5763 65.8043 15.3281 66.0895C15.1617 66.2823 14.8766 66.1661 14.8792 65.902C14.9135 61.6561 15.6106 57.3943 16.9256 53.3675C17.0154 53.0929 16.7461 52.8632 16.5375 53.0374C15.3334 54.0197 14.2164 55.1419 13.2078 56.3777C13.0229 56.6048 12.7034 56.412 12.7721 56.1163C13.8019 51.564 15.5921 47.2046 18.0214 43.3468C18.1746 43.1038 17.9528 42.7975 17.7125 42.919L15.5737 44.0148C15.3228 44.1442 15.101 43.8115 15.2726 43.5686C15.7215 42.9269 16.1863 42.2985 16.6695 41.6859C19.0591 38.6414 21.8422 35.9877 24.8947 33.8462C24.4933 34.1499 21.6152 33.1914 20.7808 32.753C20.6963 32.7081 20.6329 32.6685 20.5959 32.6368C23.4635 31.3272 27.7411 29.727 30.7962 29.624C30.0595 27.4614 28.1689 25.7477 24.5989 25.3438C33.5054 23.065 38.6306 27.1604 40.5318 27.9975V27.9975Z" fill="#0691AE"/>
<path d="M41.4455 68.5637C50.6314 68.5637 58.078 60.812 58.078 51.2499C58.078 41.6877 50.6314 33.936 41.4455 33.936C32.2595 33.936 24.8129 41.6877 24.8129 51.2499C24.8129 60.812 32.2595 68.5637 41.4455 68.5637Z" fill="white"/>
<path d="M40.5319 33.9619C31.7759 34.4557 24.8208 42.0023 24.8156 51.2414C24.8103 60.4885 31.768 68.043 40.5319 68.5368V33.9619Z" fill="#E0E0E0"/>
<path d="M40.7643 41.2422C38.4723 41.4085 36.2384 42.4172 34.5696 44.2497C31.1027 48.0468 31.372 53.9378 35.1717 57.4021C36.7085 58.8042 38.5859 59.5937 40.5055 59.7891C42.2747 53.4942 42.6126 47.0249 40.7643 41.2422V41.2422Z" fill="#02A486"/>
<path d="M48.3241 56.7996C51.791 53.0026 51.5217 47.1116 47.722 43.6472C45.7548 41.8517 43.2279 41.0622 40.7643 41.2417C42.61 47.0218 42.2746 53.4937 40.5055 59.7887C43.3361 60.0739 46.2592 59.0652 48.3241 56.8023V56.7996Z" fill="#04BF8A"/>
<path d="M40.8857 56.0444C42.573 56.2134 44.3157 55.614 45.5462 54.2647C47.6111 52.0018 47.4527 48.4925 45.1871 46.425C44.0147 45.3556 42.507 44.8829 41.0415 44.9912C39.6763 45.0915 38.3455 45.6909 37.3501 46.7841C35.2852 49.047 35.4436 52.5563 37.7092 54.6238C38.6254 55.4582 39.745 55.9308 40.8883 56.0444H40.8857Z" fill="#263238"/>
</g>
<defs>
<clipPath id="clip0_135_216">
<rect width="84" height="84" fill="white"/>
</clipPath>
</defs>
</svg>
