<svg width="84" height="84" viewBox="0 0 84 84" fill="none" xmlns="http://www.w3.org/2000/svg">
<g clip-path="url(#clip0_136_84)">
<path d="M84 42C84 49.9374 81.7977 57.3599 77.9689 63.6918C74.7077 69.097 70.2583 73.702 64.9851 77.1584C64.6656 77.367 64.3408 77.573 64.016 77.7737C63.3241 78.2014 62.6165 78.6081 61.8956 78.9962C61.7899 79.0543 61.6843 79.1098 61.5787 79.1652C59.9838 80.0102 58.3281 80.7522 56.617 81.3859H56.6144C52.833 82.7907 48.7929 83.6673 44.5838 83.9208C43.8709 83.9657 43.15 83.9894 42.4238 83.9974C42.3736 83.9974 42.3208 83.9974 42.2707 83.9974C42.1809 83.9974 42.0911 83.9974 42.0013 83.9974H41.9617C41.8059 83.9974 41.6528 83.9974 41.4996 83.9974C40.7999 83.9894 40.108 83.963 39.4188 83.9208C35.1939 83.6647 31.1379 82.7854 27.3407 81.3701C25.8673 80.8208 24.4334 80.1924 23.0471 79.4874C22.7276 79.3289 22.4134 79.1652 22.1018 78.9962C21.3862 78.6107 20.6811 78.2041 19.992 77.779C19.646 77.5651 19.3054 77.3486 18.9648 77.1267C13.7153 73.6756 9.28169 69.0785 6.02848 63.6918C2.20226 57.3599 0 49.9374 0 42C0 18.8057 18.8037 0 42.0013 0C65.199 0 84 18.8057 84 42Z" fill="#FF9D83"/>
<path d="M48.447 69.7914V60.708L35.4737 60.708V69.7914C35.4737 69.7914 24.2169 71.2621 18.9647 77.1267C19.3054 77.3485 19.646 77.565 19.9919 77.7789C20.6811 78.204 21.3861 78.6107 22.1017 78.9962C23.7812 79.9019 25.5319 80.6967 27.3407 81.37C31.1379 82.7853 35.1938 83.6646 39.4188 83.9208C40.108 83.963 40.7998 83.9894 41.4996 83.9973C41.6527 83.9973 41.8059 83.9973 41.9617 83.9973H42.0013C42.1412 83.9973 42.2838 83.9973 42.4238 83.9973C43.1499 83.9894 43.8708 83.9656 44.5838 83.9208C48.7929 83.6673 52.833 82.7906 56.6143 81.3859H56.617C58.4416 80.7099 60.2029 79.9098 61.8955 78.9962C62.6164 78.608 63.3241 78.2014 64.0159 77.7736C64.3407 77.573 64.6655 77.367 64.985 77.1584C59.7461 71.2674 48.447 69.7914 48.447 69.7914V69.7914Z" fill="#FDDCAB"/>
<path d="M18.2281 40.8805C18.6955 46.2381 22.0833 46.5603 22.0833 46.5603L22.1335 35.8345C22.1335 35.8345 17.7554 35.5203 18.2281 40.8805Z" fill="#FDDCAB"/>
<path d="M42.0039 14.4014C30.9425 14.4014 21.9777 23.3686 21.9777 34.427V46.0902C21.9777 57.1513 30.9451 66.1158 42.0039 66.1158L42.0039 14.4014Z" fill="#FDDCAB"/>
<path d="M65.6849 40.7194C65.2175 46.077 61.8296 46.3991 61.8296 46.3991L61.7794 35.6734C61.7794 35.6734 66.1575 35.3592 65.6849 40.7194V40.7194Z" fill="#FFEAD5"/>
<path d="M42.0039 14.4014L42.0039 66.1184C53.0654 66.1184 62.0302 57.1513 62.0302 46.0928V34.4297C62.0302 23.3685 53.0627 14.404 42.0039 14.404V14.4014Z" fill="#FFEAD5"/>
<path d="M64.985 77.1584L61.5787 79.1652C59.9837 80.0101 58.3281 80.7521 56.617 81.3858H56.6143C52.833 82.7906 48.7929 83.6672 44.5838 83.9207C43.8708 83.9656 43.1499 83.9894 42.4238 83.9973C42.3736 83.9973 42.3208 83.9973 42.2706 83.9973V77.9875H42.2786C42.3683 77.9875 42.4502 77.9796 42.5426 77.9796C50.1792 77.8211 51.5655 70.1821 51.5655 70.1821C51.7689 70.1953 51.9669 70.2138 52.1623 70.2429C59.9045 71.4364 64.985 77.1584 64.985 77.1584V77.1584Z" fill="#FF3932"/>
<path d="M42.2706 77.9875V83.9973C42.1808 83.9973 42.0911 83.9973 42.0013 83.9973H41.9617C41.8059 83.9973 41.6527 83.9973 41.4996 83.9973C40.7998 83.9894 40.108 83.963 39.4188 83.9207C35.1938 83.6646 31.1379 82.7853 27.3407 81.37C25.8672 80.8208 24.4334 80.1923 23.0471 79.4873L18.9647 77.1267C18.9647 77.1267 23.8921 71.3677 32.3816 70.2429C32.5796 70.2165 32.7724 70.1953 32.9784 70.1821C32.9784 70.1821 34.3647 77.8211 41.9986 77.9796C42.0911 77.9796 42.1756 77.9875 42.2653 77.9875H42.2706V77.9875Z" fill="#DB242D"/>
<path d="M39.0465 43.0563V38.1766C39.0465 38.0393 38.9383 37.931 38.8168 37.931H29.1786V43.0272C29.1786 44.3527 30.2534 45.4274 31.5789 45.4274H36.6753C37.985 45.4274 39.0465 44.3659 39.0465 43.0563V43.0563ZM40.586 36.3916V43.0563C40.586 45.2162 38.8353 46.9669 36.6753 46.9669H31.5948C29.4189 46.9669 27.6392 45.1871 27.6392 43.0114V36.7164C27.6392 36.5368 27.7844 36.3942 27.9613 36.3942H40.586V36.3916Z" fill="#1F1F24"/>
<path d="M44.8902 43.381V38.1766C44.8902 38.0393 44.9984 37.931 45.1199 37.931H54.7581V43.3494C54.7581 44.498 53.8286 45.4274 52.6799 45.4274H46.9366C45.8065 45.4274 44.8902 44.5112 44.8902 43.381ZM43.3507 36.3916V43.381C43.3507 45.3614 44.9562 46.9669 46.9366 46.9669H52.6641C54.663 46.9669 56.2976 45.3324 56.2976 43.3335V36.3916H43.3507V36.3916Z" fill="#1F1F24"/>
<path d="M28.4048 37.931H23.7389L23.2742 36.3916H28.4048V37.931Z" fill="#1F1F24"/>
<path d="M55.5317 37.931H60.2003L60.6624 36.3916H55.5317V37.931Z" fill="#1F1F24"/>
<path d="M43.7177 36.3916H40.2189V37.931H43.7177V36.3916Z" fill="#1F1F24"/>
<path d="M23.7284 37.9416V32.1852C23.7284 31.0841 23.9634 30.0411 24.3727 29.0906C36.7175 19.0909 45.6718 37.8122 60.1264 30.865C60.2003 31.2954 60.2584 31.7311 60.2584 32.1826L60.1687 37.7594C61.4124 36.5236 62.2943 35.7394 63.3928 35.9216L64.0318 31.6915C64.1956 27.2765 62.5267 22.9989 59.5006 19.7907C55.1225 15.1486 50.7444 13.6436 41.9908 13.6436C33.2372 13.6436 28.8565 15.1486 24.481 19.7907C21.4549 23.0015 19.786 27.2765 19.9497 31.6915L20.5888 36.0774C21.6899 35.8978 22.8227 36.6451 23.7231 37.9416H23.7284Z" fill="#1F1F24"/>
</g>
<defs>
<clipPath id="clip0_136_84">
<rect width="84" height="84" fill="white"/>
</clipPath>
</defs>
</svg>
