<svg width="84" height="84" viewBox="0 0 84 84" fill="none" xmlns="http://www.w3.org/2000/svg">
<g clip-path="url(#clip0_135_322)">
<path d="M42 84C65.196 84 84 65.196 84 42C84 18.804 65.196 0 42 0C18.804 0 0 18.804 0 42C0 65.196 18.804 84 42 84Z" fill="#B1BCE9"/>
<path d="M54.4104 45.1211C58.1864 41.7175 60.5602 36.7903 60.5602 31.3059C60.5602 28.3987 59.8921 25.6499 58.7039 23.1995C55.6911 16.9917 49.3301 12.7114 41.9657 12.7114V68.5847H43.014V49.8687C46.6209 49.668 49.9506 48.4376 52.7232 46.4677L60.8665 64.3387L62.7729 63.47L54.4131 45.1184L54.4104 45.1211Z" fill="white"/>
<path d="M25.2276 23.1995C24.0393 25.6499 23.3713 28.3987 23.3713 31.3059C23.3713 36.9487 25.8877 42 29.8564 45.4089L21.6285 63.4726L23.535 64.3414L31.5621 46.7186C34.2608 48.5432 37.4637 49.676 40.9175 49.8687V68.5847H41.9658V12.7114C34.6014 12.7114 28.2404 16.9917 25.2276 23.1995Z" fill="#F7F7F7"/>
<path d="M41.9947 71.2888C43.7622 71.2888 45.195 69.856 45.195 68.0885C45.195 66.321 43.7622 64.8882 41.9947 64.8882C40.2273 64.8882 38.7944 66.321 38.7944 68.0885C38.7944 69.856 40.2273 71.2888 41.9947 71.2888Z" fill="#FF3932"/>
<path d="M22.5447 67.1853C24.3121 67.1853 25.745 65.7524 25.745 63.985C25.745 62.2175 24.3121 60.7847 22.5447 60.7847C20.7772 60.7847 19.3444 62.2175 19.3444 63.985C19.3444 65.7524 20.7772 67.1853 22.5447 67.1853Z" fill="#FF3932"/>
<path d="M61.8514 67.1853C63.6189 67.1853 65.0517 65.7524 65.0517 63.985C65.0517 62.2175 63.6189 60.7847 61.8514 60.7847C60.0839 60.7847 58.6511 62.2175 58.6511 63.985C58.6511 65.7524 60.0839 67.1853 61.8514 67.1853Z" fill="#FF3932"/>
<path d="M41.9657 42.5254C35.8027 42.5254 30.7858 37.5111 30.7858 31.3455C30.7858 25.1799 35.8001 20.1655 41.9657 20.1655C48.1313 20.1655 53.1456 25.1799 53.1456 31.3455C53.1456 37.5111 48.1313 42.5254 41.9657 42.5254ZM41.9657 21.7208C36.6583 21.7208 32.3384 26.038 32.3384 31.3481C32.3384 36.6582 36.6556 40.9754 41.9657 40.9754C47.2758 40.9754 51.593 36.6582 51.593 31.3481C51.593 26.038 47.2731 21.7208 41.9657 21.7208V21.7208Z" fill="#E5E5E5"/>
<path d="M41.9657 40.9729C47.2731 40.9729 51.593 36.6556 51.593 31.3456C51.593 26.0355 47.2758 21.7183 41.9657 21.7183C36.6556 21.7183 32.3384 26.0355 32.3384 31.3456C32.3384 36.6556 36.6583 40.9729 41.9657 40.9729Z" fill="#62C2E8"/>
<path d="M41.9947 40.9728C41.9947 40.9728 41.9763 40.9728 41.9657 40.9728C36.6583 40.9728 32.3384 36.6555 32.3384 31.3455C32.3384 26.0354 36.6556 21.7181 41.9657 21.7181C41.9763 21.7181 41.9842 21.7181 41.9947 21.7181V20.1655C41.9947 20.1655 41.9763 20.1655 41.9657 20.1655C35.8027 20.1655 30.7858 25.1799 30.7858 31.3455C30.7858 37.5111 35.8001 42.5254 41.9657 42.5254C41.9763 42.5254 41.9842 42.5254 41.9947 42.5254V40.9728Z" fill="#D6D6D6"/>
<path d="M41.9657 40.9727V21.7207C36.6583 21.7207 32.3384 26.0379 32.3384 31.348C32.3384 36.6581 36.6583 40.9753 41.9657 40.9753V40.9727Z" fill="#46B8DB"/>
<path d="M24.5145 28.375H22.2172C21.0652 28.375 20.1312 29.3089 20.1312 30.461V32.2301C20.1312 33.3822 21.0652 34.3162 22.2172 34.3162H24.5145C25.6665 34.3162 26.6005 33.3822 26.6005 32.2301V30.461C26.6005 29.3089 25.6665 28.375 24.5145 28.375Z" fill="#F7F7F7"/>
<path d="M25.7899 30.5352H18.1747C17.7269 30.5352 17.364 30.8981 17.364 31.3458V31.3484C17.364 31.7961 17.7269 32.1591 18.1747 32.1591H25.7899C26.2376 32.1591 26.6005 31.7961 26.6005 31.3484V31.3458C26.6005 30.8981 26.2376 30.5352 25.7899 30.5352Z" fill="#F7F7F7"/>
<path d="M65.659 30.5352H58.0438C57.5961 30.5352 57.2332 30.8981 57.2332 31.3458V31.3484C57.2332 31.7961 57.5961 32.1591 58.0438 32.1591H65.659C66.1067 32.1591 66.4697 31.7961 66.4697 31.3484V31.3458C66.4697 30.8981 66.1067 30.5352 65.659 30.5352Z" fill="white"/>
<path d="M61.7009 28.375H59.4036C58.2516 28.375 57.3176 29.3089 57.3176 30.461V32.2301C57.3176 33.3822 58.2516 34.3162 59.4036 34.3162H61.7009C62.8529 34.3162 63.7869 33.3822 63.7869 32.2301V30.461C63.7869 29.3089 62.8529 28.375 61.7009 28.375Z" fill="white"/>
</g>
<defs>
<clipPath id="clip0_135_322">
<rect width="84" height="84" fill="white"/>
</clipPath>
</defs>
</svg>
