<svg width="84" height="84" viewBox="0 0 84 84" fill="none" xmlns="http://www.w3.org/2000/svg">
<g clip-path="url(#clip0_135_722)">
<path d="M84 42C84 49.9374 81.7977 57.3599 77.9689 63.6918C74.7077 69.097 70.2583 73.702 64.9851 77.1584C64.6656 77.367 64.3408 77.573 64.016 77.7737C63.3241 78.2014 62.6165 78.6081 61.8956 78.9962C61.7899 79.0543 61.6843 79.1098 61.5787 79.1652C59.9838 80.0102 58.3281 80.7522 56.617 81.3859H56.6144C52.833 82.7907 48.7929 83.6673 44.5838 83.9208C43.8709 83.9657 43.15 83.9894 42.4238 83.9974C42.3736 83.9974 42.3208 83.9974 42.2707 83.9974C42.1809 83.9974 42.0911 83.9974 42.0013 83.9974H41.9617C41.8059 83.9974 41.6528 83.9974 41.4996 83.9974C40.7999 83.9894 40.108 83.963 39.4188 83.9208C35.1939 83.6647 31.1379 82.7854 27.3407 81.3701C25.8673 80.8208 24.4334 80.1924 23.0471 79.4874C22.7276 79.3289 22.4134 79.1652 22.1018 78.9962C21.3862 78.6107 20.6811 78.2041 19.992 77.779C19.646 77.5651 19.3054 77.3486 18.9648 77.1267C13.7153 73.6756 9.28169 69.0785 6.02848 63.6918C2.20226 57.3599 0 49.9374 0 42C0 18.8057 18.8037 0 42.0013 0C65.199 0 84 18.8057 84 42Z" fill="#91C6EE"/>
<path d="M48.447 69.7919V60.7085L35.4737 60.7085V69.7919C35.4737 69.7919 24.2169 71.2626 18.9647 77.1272C19.3054 77.349 19.646 77.5655 19.9919 77.7794C20.6811 78.2045 21.3861 78.6112 22.1017 78.9967C23.7812 79.9024 25.5319 80.6972 27.3407 81.3705C31.1379 82.7858 35.1938 83.6651 39.4188 83.9212C40.108 83.9635 40.7998 83.9899 41.4996 83.9978C41.6527 83.9978 41.8059 83.9978 41.9617 83.9978H42.0013C42.1412 83.9978 42.2838 83.9978 42.4238 83.9978C43.1499 83.9899 43.8708 83.9661 44.5838 83.9212C48.7929 83.6678 52.833 82.7911 56.6143 81.3864H56.617C58.4416 80.7104 60.2029 79.9103 61.8955 78.9967C62.6164 78.6085 63.3241 78.2019 64.0159 77.7741C64.3407 77.5735 64.6655 77.3675 64.985 77.1589C59.7461 71.2679 48.447 69.7919 48.447 69.7919V69.7919Z" fill="#FDDCAB"/>
<path d="M18.228 40.8805C18.6954 46.2381 22.0833 46.5603 22.0833 46.5603L22.1335 35.8345C22.1335 35.8345 17.7553 35.5203 18.228 40.8805Z" fill="#FDDCAB"/>
<path d="M42.0039 14.4014C30.9425 14.4014 21.9777 23.3685 21.9777 34.427V46.0902C21.9777 57.1513 30.9451 66.1158 42.0039 66.1158L42.0039 14.4014Z" fill="#FDDCAB"/>
<path d="M65.6849 40.7194C65.2175 46.077 61.8296 46.3991 61.8296 46.3991L61.7794 35.6734C61.7794 35.6734 66.1575 35.3592 65.6849 40.7194V40.7194Z" fill="#FFEAD5"/>
<path d="M42.004 14.4014L42.004 66.1184C53.0654 66.1184 62.0302 57.1513 62.0302 46.0928V34.4297C62.0302 23.3685 53.0628 14.404 42.004 14.404V14.4014Z" fill="#FFEAD5"/>
<path d="M64.9851 77.1584L61.5787 79.1652C59.9838 80.0101 58.3282 80.7521 56.6171 81.3858H56.6144C52.8331 82.7906 48.793 83.6672 44.5839 83.9207C43.8709 83.9656 43.15 83.9894 42.4238 83.9973C42.3737 83.9973 42.3209 83.9973 42.2707 83.9973V77.9875H42.2786C42.3684 77.9875 42.4503 77.9796 42.5427 77.9796C50.1793 77.8211 51.5656 70.1821 51.5656 70.1821C51.7689 70.1953 51.967 70.2138 52.1624 70.2429C59.9046 71.4364 64.9851 77.1584 64.9851 77.1584V77.1584Z" fill="#FEC84B"/>
<path d="M42.2706 77.9875V83.9973C42.1808 83.9973 42.0911 83.9973 42.0013 83.9973H41.9617C41.8059 83.9973 41.6527 83.9973 41.4996 83.9973C40.7998 83.9894 40.108 83.963 39.4188 83.9207C35.1938 83.6646 31.1379 82.7853 27.3407 81.37C25.8672 80.8208 24.4334 80.1923 23.0471 79.4873L18.9647 77.1267C18.9647 77.1267 23.8921 71.3677 32.3816 70.2429C32.5796 70.2165 32.7724 70.1953 32.9784 70.1821C32.9784 70.1821 34.3647 77.8211 41.9986 77.9796C42.0911 77.9796 42.1756 77.9875 42.2653 77.9875H42.2706V77.9875Z" fill="#FDB022"/>
<path d="M37.0739 37.9097H30.5701C28.463 37.9097 26.7598 39.4861 26.7598 41.4321C26.7598 43.3782 28.4656 44.9546 30.5701 44.9546H37.0739C39.1785 44.9546 40.8843 43.3755 40.8843 41.4321C40.8843 39.4887 39.1785 37.9097 37.0739 37.9097Z" fill="white"/>
<path d="M36.9578 42.1163H42.0039V40.7485H37.0475L36.9578 42.1163Z" fill="white"/>
<path d="M47.4489 44.957H53.9527C56.0599 44.957 57.763 43.3806 57.763 41.4346C57.763 39.4885 56.0572 37.9121 53.9527 37.9121H47.4489C45.3443 37.9121 43.6385 39.4911 43.6385 41.4346C43.6385 43.378 45.3443 44.957 47.4489 44.957Z" fill="white"/>
<path d="M47.0475 40.751H42.004V42.1188H46.9577L47.0475 40.751Z" fill="white"/>
<path d="M57.4806 9.30015C57.7314 8.11192 57.5783 5.61399 41.8456 6.56722V19.8068C41.8456 19.8068 58.9619 25.666 63.2793 23.1285C63.2793 23.1285 62.0092 18.2251 59.8703 15.1911C57.7314 12.1572 57.2323 10.491 57.4806 9.30279V9.30015Z" fill="#026E78"/>
<path d="M26.2106 9.2998C26.4614 10.4907 25.9597 12.1542 23.8208 15.1881C21.6793 18.2221 20.4118 23.1255 20.4118 23.1255C24.7292 25.6631 41.8429 19.8038 41.8429 19.8038V6.56423C26.1129 5.61365 25.9571 8.11157 26.2079 9.29716L26.2106 9.2998Z" fill="#026E78"/>
<path d="M18.2069 26.5076C18.772 27.7856 18.236 29.1508 17.4543 30.2228C16.6701 31.3001 17.8795 33.1907 17.8795 33.1907L17.6841 33.6581C17.1322 34.7222 18.2096 35.4484 18.2096 35.4484C18.2096 35.4484 22.1599 33.3096 26.7968 32.0659C31.4363 30.8248 42.0277 29.8716 42.0277 29.8716V19.806C32.8358 19.732 25.1332 22.8505 21.608 22.8848C18.0854 22.9191 17.6445 25.2243 18.2096 26.5076H18.2069Z" fill="#015364"/>
<path d="M66.691 30.2228C65.9067 29.1481 65.3707 27.7856 65.9358 26.5076C66.5009 25.2243 66.0625 22.9218 62.5373 22.8848C59.0121 22.8505 51.1326 19.732 41.9407 19.806V29.8716C41.9407 29.8716 52.709 30.8248 57.3485 32.0659C61.9854 33.3096 65.9358 35.4484 65.9358 35.4484C65.9358 35.4484 67.0131 34.7222 66.4612 33.6581L66.2658 33.1907C66.2658 33.1907 67.4726 31.3001 66.6936 30.2228H66.691Z" fill="#015364"/>
<path d="M69.1018 39.6655C66.6038 39.8424 65.7429 36.5761 65.7429 36.5761C67.7867 29.5576 44.7872 28.8235 42.1043 28.7602V28.7549C42.1043 28.7549 42.0568 28.7549 41.9749 28.7549C41.8931 28.7549 41.8455 28.7549 41.8455 28.7549V28.7602C39.1627 28.8209 16.1631 29.555 18.2069 36.5761C18.2069 36.5761 17.3461 39.845 14.8481 39.6655C12.3501 39.4886 23.4063 42.8499 23.496 36.5761C23.496 36.5761 25.0091 40.0035 28.397 40.727C28.397 40.727 28.2438 37.6164 31.13 35.9239C31.13 35.9239 34.2802 39.3988 32.9441 41.7172C32.9441 41.7172 40.8817 41.4848 41.9776 36.6817C43.0708 41.4848 51.011 41.7172 51.011 41.7172C49.6749 39.3988 52.8251 35.9239 52.8251 35.9239C55.7087 37.6164 55.5581 40.727 55.5581 40.727C58.946 40.0035 60.4591 36.5761 60.4591 36.5761C60.5489 42.8526 71.6024 39.4912 69.1044 39.6655H69.1018Z" fill="#1F1F24"/>
</g>
<defs>
<clipPath id="clip0_135_722">
<rect width="84" height="84" fill="white"/>
</clipPath>
</defs>
</svg>
