<svg width="84" height="84" viewBox="0 0 84 84" fill="none" xmlns="http://www.w3.org/2000/svg">
<g clip-path="url(#clip0_135_620)">
<path d="M84 41.5262C84 49.374 81.7977 56.7127 77.9689 62.9732C75.595 66.8658 72.5873 70.3381 69.0912 73.2569C68.4178 73.8234 67.7234 74.3664 67.013 74.8886C66.3529 75.3742 65.6743 75.8415 64.9851 76.2879C64.6656 76.4942 64.3408 76.6978 64.016 76.8962C63.3241 77.3192 62.6165 77.7212 61.8956 78.105C61.7899 78.1624 61.6843 78.2172 61.5787 78.2721C61.341 78.3974 61.1008 78.5201 60.8605 78.6376C59.49 79.3242 58.072 79.9351 56.617 80.4677C55.4974 80.8776 54.3567 81.2431 53.1974 81.559C51.3358 82.0681 49.4188 82.4518 47.4594 82.7025C46.9577 82.7703 46.4507 82.8252 45.9437 82.8696C45.5265 82.9087 45.1067 82.9427 44.6868 82.9662C44.6525 82.9688 44.6208 82.9714 44.5865 82.974C43.8735 83.0184 43.1526 83.0419 42.4265 83.0497H42.371C42.3393 83.0497 42.305 83.0497 42.2733 83.0497C42.1835 83.0497 42.0937 83.0497 42.004 83.0497H41.9644C41.8086 83.0497 41.6554 83.0497 41.5022 83.0497C40.8025 83.0419 40.1107 83.0158 39.4215 82.974C39.3713 82.9714 39.3185 82.9688 39.2683 82.9635C39.2366 82.9635 39.2049 82.9609 39.1759 82.9557C38.2754 82.8983 37.3856 82.8121 36.501 82.6972C34.8163 82.4806 33.1632 82.1647 31.5472 81.7548C30.116 81.3919 28.7138 80.9559 27.3434 80.452C26.163 80.0186 25.0117 79.533 23.8868 78.9979C23.6043 78.8673 23.327 78.7289 23.0498 78.5906C22.7303 78.4339 22.416 78.2721 22.1044 78.105C21.3888 77.7238 20.6838 77.3218 19.9946 76.9014C19.6487 76.69 19.308 76.4759 18.9674 76.2566C18.2835 75.8128 17.6154 75.3481 16.9605 74.8677C16.5196 74.544 16.0865 74.2124 15.6587 73.8652C11.8431 70.8289 8.57666 67.14 6.03112 62.9732C2.20226 56.7127 0 49.374 0 41.5262C0 18.5936 18.8037 0 42.0013 0C65.199 0 84 18.5936 84 41.5262Z" fill="#91C6EE"/>
<path d="M69.0913 67.1274V73.2574C68.4179 73.8239 67.7234 74.367 67.0131 74.8891C66.353 75.3747 65.6743 75.842 64.9851 76.2885C64.6656 76.4947 64.3408 76.6984 64.016 76.8968C63.3242 77.3197 62.6165 77.7218 61.8956 78.1055C61.79 78.163 61.6844 78.2178 61.5788 78.2726C61.3411 78.3979 61.1008 78.5206 60.8605 78.6381C59.49 79.3247 58.072 79.9356 56.6171 80.4682C55.4975 80.8781 54.3567 81.2436 53.1975 81.5595C53.1869 81.2932 53.1764 81.0348 53.1658 80.7867C52.8674 73.2339 52.6377 72.9702 52.6377 72.6596V63.8249C52.6377 63.5064 52.6615 63.1957 52.7064 62.8902C53.1632 59.7495 55.8936 57.3398 59.1943 57.3398C59.4108 57.3398 59.6247 57.3477 59.8386 57.3607C62.3181 57.5174 64.5468 58.5773 66.1945 60.2064C67.9875 61.9791 69.0939 64.4253 69.0939 67.1274H69.0913Z" fill="white"/>
<path d="M60.8605 62.7098V78.6378C59.49 79.3244 58.072 79.9353 56.617 80.4679C55.4974 80.8778 54.3567 81.2433 53.1975 81.5592C51.3359 82.0683 49.4188 82.452 47.4595 82.7027C46.9577 82.7706 46.4508 82.8254 45.9438 82.8698C45.5265 82.9089 45.1067 82.9429 44.6868 82.9664C44.6525 82.969 44.6208 82.9716 44.5865 82.9742C43.8735 83.0186 43.1526 83.0421 42.4265 83.0499H42.379V84.0002H42.371V48.1367H46.126C48.8643 48.1367 51.4283 48.8756 53.6253 50.1626C54.8954 50.9067 56.044 51.8335 57.0343 52.9091C58.2225 54.2014 59.1811 55.7078 59.8386 57.3604C60.5014 59.0156 60.8631 60.8196 60.8631 62.7098H60.8605Z" fill="#E5E5E5"/>
<path d="M54.663 65.3524V78.4817C54.663 79.5051 54.0504 80.3875 53.1658 80.787C52.841 80.9358 52.4819 81.0167 52.1016 81.0167H42.371V62.8174H52.1016C52.3102 62.8174 52.5109 62.8409 52.7037 62.8905C53.8286 63.1568 54.663 64.1593 54.663 65.3524V65.3524Z" fill="#4EB7B4"/>
<path d="M42.3684 77.5545V66.2788C43.7045 66.2788 45.1463 66.7331 46.5458 67.7878C50.1265 72.4375 46.8521 77.5545 42.3684 77.5545V77.5545Z" fill="white"/>
<path d="M55.2281 55.0869C54.8981 53.8129 53.7811 52.9565 52.4502 52.9565V54.7475C52.239 54.7475 51.9696 56.1886 51.9036 55.9302C51.8376 55.6717 51.9934 55.4054 52.173 55.3062C52.0066 55.3976 51.8402 55.4837 51.6712 55.5699L51.6369 55.5855C51.4494 55.6769 51.2593 55.7709 51.0692 55.8597L51.0428 55.8727C50.8659 55.9537 50.6916 56.032 50.5147 56.1103H50.5094L50.4883 56.1207C50.2981 56.2017 50.108 56.28 49.91 56.3557C49.7172 56.4314 49.5271 56.5045 49.3158 56.5802C49.1416 56.6429 48.9699 56.7029 48.7956 56.7578L48.6187 56.8152C48.484 56.8622 48.3441 56.904 48.2068 56.9405L48.0932 56.9771C47.9374 57.0214 47.779 57.0658 47.6153 57.1076L47.1849 57.2146C47.1321 57.2277 47.0792 57.2407 47.0238 57.2512L46.9736 57.2616C46.8469 57.2903 46.7254 57.3191 46.596 57.3452C46.5696 57.3504 46.5379 57.3556 46.4983 57.3634L46.4534 57.3713C46.3161 57.4 46.1762 57.4235 46.0389 57.4496L45.9279 57.4705C45.8646 57.4835 45.7986 57.4914 45.7273 57.5044L45.6771 57.5123C45.6454 57.5175 45.6137 57.5227 45.582 57.5279L45.3813 57.5592C45.347 57.5645 45.31 57.5723 45.2731 57.5749L45.2176 57.5827C45.1569 57.5906 45.0962 57.601 45.0328 57.6089C44.9958 57.6115 44.9615 57.6167 44.9324 57.6219L44.6446 57.6532H44.5654L44.473 57.6715C44.4413 57.6741 44.4122 57.6767 44.3806 57.6793L44.3172 57.6846C44.2538 57.6924 44.1904 57.6976 44.1271 57.7028H44.0822V55.1965H42.3658V61.1699C42.4688 61.1699 42.5717 61.1699 42.6747 61.1673C42.7804 61.1673 42.8833 61.1647 42.9916 61.162H43.0576C43.1263 61.1594 43.1976 61.1568 43.2662 61.1542C43.3613 61.1516 43.4563 61.149 43.5567 61.1412C43.6042 61.1412 43.6518 61.1359 43.6993 61.1333C43.8023 61.1281 43.9079 61.1229 44.0082 61.1177H44.032C44.0452 61.1177 44.0584 61.1151 44.0716 61.1124L44.407 61.0863C44.4941 61.0785 44.5786 61.0733 44.6657 61.0628C44.7159 61.0576 44.7687 61.055 44.8215 61.0472L45.4738 60.9767L45.5002 60.9715C45.5688 60.9636 45.6375 60.9532 45.7061 60.9427C45.7801 60.9323 45.854 60.9219 45.9253 60.9114L46.0705 60.8905C46.1392 60.8801 46.2105 60.8696 46.2791 60.8592C46.3742 60.8435 46.4693 60.8305 46.5828 60.8096L46.67 60.7939C46.8205 60.7652 46.971 60.7391 47.1215 60.7078C47.1505 60.7026 47.1849 60.6947 47.2271 60.6869L47.2905 60.6738C47.4436 60.6425 47.5889 60.6086 47.7394 60.5746C47.845 60.5537 47.9533 60.5276 48.0563 60.5015C48.1064 60.4885 48.1593 60.478 48.2094 60.465L48.4814 60.3971C48.6662 60.3501 48.8484 60.2979 49.0333 60.2457C49.0835 60.2326 49.1336 60.217 49.1812 60.2013C49.3502 60.1543 49.5165 60.1021 49.6776 60.0499C49.7595 60.0264 49.8307 60.0029 49.8941 59.9794C50.0974 59.9141 50.3008 59.8436 50.4883 59.7758C50.7206 59.6922 50.953 59.6034 51.1801 59.5147C51.3834 59.4337 51.5867 59.3528 51.7874 59.2667C51.8323 59.251 51.8746 59.2301 51.9195 59.2118C52.0964 59.1335 52.2707 59.0552 52.4449 58.9769C52.4951 58.956 52.5426 58.9351 52.5902 58.909C52.7671 58.8254 52.944 58.7393 53.1183 58.6531C53.1737 58.6296 53.2266 58.6035 53.2767 58.5748C53.4616 58.4808 53.6438 58.3842 53.8207 58.2876C54.9905 57.6532 55.5529 56.3714 55.2228 55.0947L55.2281 55.0869Z" fill="#3C3642"/>
<path d="M42.3684 53.5725V14.6074C48.484 14.6074 54.0214 17.0589 58.0298 21.0194C62.0356 24.9824 64.5151 30.4571 64.5151 36.5036C64.5151 43.0356 61.621 48.9019 57.0316 52.9119C55.648 54.1233 54.1111 55.165 52.4502 56.003C52.4344 56.0135 52.4185 56.0213 52.4027 56.0265C52.2073 56.1231 52.0092 56.2197 51.8112 56.3137C51.798 56.3216 51.7821 56.3294 51.7663 56.3346C51.5788 56.4208 51.3913 56.5043 51.2012 56.5878C51.188 56.5931 51.1774 56.6009 51.1642 56.6035C50.9609 56.6897 50.7549 56.7732 50.549 56.8541C50.3377 56.9377 50.1265 57.0186 49.9126 57.0943C49.7198 57.1648 49.5271 57.2301 49.3343 57.2927C49.2841 57.311 49.2313 57.3293 49.1785 57.3423C49.0095 57.3998 48.8379 57.452 48.6662 57.499C48.6372 57.5094 48.6081 57.5199 48.5765 57.5277C48.4022 57.5773 48.2279 57.6269 48.0536 57.6713C48.0034 57.6843 47.9533 57.6974 47.9031 57.7105C47.816 57.7313 47.7262 57.7548 47.6364 57.7757C47.5493 57.7992 47.4595 57.8201 47.3697 57.8384C47.2245 57.8723 47.0819 57.9037 46.934 57.935C46.8891 57.9428 46.8442 57.9533 46.7993 57.9611C46.6303 57.995 46.4587 58.0264 46.2897 58.0577L46.2501 58.0655C46.1656 58.0812 46.0811 58.0942 45.9966 58.1073C45.9121 58.123 45.8249 58.1334 45.7405 58.1464C45.6533 58.1595 45.5662 58.1752 45.4764 58.1856C45.3893 58.1987 45.2995 58.2117 45.2097 58.2222C45.1991 58.2222 45.1886 58.2248 45.178 58.2274C45.1278 58.2326 45.0777 58.2378 45.0248 58.243C44.9351 58.2535 44.8426 58.2639 44.7502 58.2744C44.7423 58.2744 44.737 58.277 44.7291 58.277C44.6552 58.2848 44.5812 58.2926 44.5099 58.2979C44.3911 58.3109 44.2749 58.3188 44.1561 58.3292C44.0874 58.3344 44.0214 58.3396 43.9528 58.3449C43.9396 58.3449 43.929 58.3475 43.9158 58.3475C43.8049 58.3553 43.6913 58.3605 43.5804 58.3657C43.5356 58.371 43.4907 58.371 43.4458 58.3736C43.3613 58.3788 43.2768 58.3814 43.1923 58.384C43.1078 58.3892 43.0233 58.3892 42.9388 58.3919C42.8464 58.3945 42.7513 58.3971 42.6536 58.3971C42.5585 58.3971 42.4635 58.3971 42.3684 58.3971V53.5725V53.5725Z" fill="white"/>
<path d="M42.3684 53.5726V18.8813C47.2878 18.8813 51.7452 20.8551 54.9693 24.0427C55.8724 24.9356 56.6778 25.9225 57.367 26.9876C58.7771 29.1545 59.7198 31.6399 60.0525 34.3159C60.1423 35.0313 60.1898 35.7597 60.1898 36.5011C60.1898 37.2426 60.1449 37.9709 60.0551 38.6863C59.7198 41.3597 58.7771 43.8503 57.3696 46.0146C56.3504 47.5862 55.0829 48.9882 53.6226 50.163C51.6554 51.7503 49.3369 52.9304 46.7993 53.5726C45.384 53.9303 43.8973 54.1209 42.3684 54.1209V53.5726V53.5726Z" fill="#4EB7B4"/>
<path d="M59.0015 47.4659C60.8157 47.4659 62.2864 42.5578 62.2864 36.5034C62.2864 30.4491 60.8157 25.541 59.0015 25.541C57.1873 25.541 55.7166 30.4491 55.7166 36.5034C55.7166 42.5578 57.1873 47.4659 59.0015 47.4659Z" fill="white"/>
<path d="M60.7866 38.8032C62.0714 38.8032 63.1129 37.7735 63.1129 36.5032C63.1129 35.2329 62.0714 34.2031 60.7866 34.2031C59.5018 34.2031 58.4602 35.2329 58.4602 36.5032C58.4602 37.7735 59.5018 38.8032 60.7866 38.8032Z" fill="#4EB7B4"/>
<path d="M32.1124 63.8249V72.6596C32.1124 72.9702 31.8827 73.2339 31.5843 80.7867C31.5711 81.0974 31.5579 81.4185 31.5447 81.7553C30.1135 81.3924 28.7113 80.9564 27.3408 80.4526C26.1605 80.0192 25.0092 79.5336 23.8843 78.9984C23.6017 78.8679 23.3245 78.7295 23.0472 78.5911C22.7277 78.4345 22.4135 78.2726 22.1019 78.1055C21.3863 77.7244 20.6812 77.3223 19.992 76.902C19.6461 76.6905 19.3055 76.4764 18.9649 76.2571C18.2809 75.8133 17.6129 75.3486 16.958 74.8682C16.517 74.5445 16.084 74.2129 15.6562 73.8657V67.1274C15.6562 64.4253 16.7626 61.9791 18.5556 60.2064C20.2033 58.5773 22.432 57.5174 24.9115 57.3607C25.1254 57.3477 25.3393 57.3398 25.5558 57.3398C28.8565 57.3398 31.5869 59.7495 32.0437 62.8902C32.0886 63.1957 32.1124 63.5064 32.1124 63.8249V63.8249Z" fill="#CCCCCC"/>
<path d="M42.3763 48.1367V84.0002H42.3684V83.0499C42.3367 83.0499 42.3024 83.0499 42.2707 83.0499C42.1809 83.0499 42.0911 83.0499 42.0013 83.0499H41.9617C41.8059 83.0499 41.6528 83.0499 41.4996 83.0499C40.7999 83.0421 40.108 83.016 39.4188 82.9742C39.3687 82.9716 39.3159 82.969 39.2657 82.9638C39.234 82.9638 39.2023 82.9611 39.1733 82.9559C38.2728 82.8985 37.3829 82.8123 36.4983 82.6975C34.8136 82.4808 33.1606 82.1649 31.5446 81.755C30.1134 81.3921 28.7112 80.9561 27.3408 80.4522C26.1604 80.0189 25.0091 79.5333 23.8842 78.9981V62.7098C23.8842 60.8196 24.246 59.0156 24.9114 57.3604C25.5663 55.7078 26.5248 54.2014 27.7131 52.9091C28.7033 51.8335 29.852 50.9067 31.1221 50.1626C33.3191 48.8756 35.8831 48.1367 38.6214 48.1367H42.3763V48.1367Z" fill="#B7B7B7"/>
<path d="M30.0843 65.3524V78.4817C30.0843 79.5051 30.6969 80.3875 31.5815 80.787C31.9063 80.9358 32.2654 81.0167 32.6457 81.0167H42.3763V62.8174H32.6457C32.4371 62.8174 32.2364 62.8409 32.0436 62.8905C30.9187 63.1568 30.0843 64.1593 30.0843 65.3524V65.3524Z" fill="#3E9290"/>
<path d="M42.379 77.5545V66.2788C41.0428 66.2788 39.6011 66.7331 38.2016 67.7878C34.6209 72.4375 37.8953 77.5545 42.379 77.5545V77.5545Z" fill="#CCCCCC"/>
<path d="M29.5193 55.0869C29.8494 53.8129 30.9664 52.9565 32.2972 52.9565V54.7475C32.5085 54.7475 32.7778 56.1886 32.8438 55.9302C32.9098 55.6717 32.754 55.4054 32.5745 55.3062C32.7408 55.3976 32.9072 55.4837 33.0762 55.5699L33.1105 55.5855C33.298 55.6769 33.4881 55.7709 33.6783 55.8597L33.7047 55.8727C33.8816 55.9537 34.0559 56.032 34.2328 56.1103H34.2381L34.2592 56.1207C34.4493 56.2017 34.6394 56.28 34.8375 56.3557C35.0302 56.4314 35.2204 56.5045 35.4316 56.5802C35.6059 56.6429 35.7775 56.7029 35.9518 56.7578L36.1287 56.8152C36.2634 56.8622 36.4033 56.904 36.5407 56.9405L36.6542 56.9771C36.81 57.0214 36.9684 57.0658 37.1321 57.1076L37.5626 57.2146C37.6154 57.2277 37.6682 57.2407 37.7236 57.2512L37.7738 57.2616C37.9006 57.2903 38.022 57.3191 38.1514 57.3452C38.1778 57.3504 38.2095 57.3556 38.2491 57.3634L38.294 57.3713C38.4313 57.4 38.5713 57.4235 38.7086 57.4496L38.8195 57.4705C38.8829 57.4835 38.9489 57.4914 39.0202 57.5044L39.0704 57.5123C39.102 57.5175 39.1337 57.5227 39.1654 57.5279L39.3661 57.5592C39.4004 57.5645 39.4374 57.5723 39.4744 57.5749L39.5298 57.5827C39.5905 57.5906 39.6513 57.601 39.7147 57.6089C39.7516 57.6115 39.7859 57.6167 39.815 57.6219L40.1028 57.6532H40.182L40.2745 57.6715C40.3061 57.6741 40.3352 57.6767 40.3669 57.6793L40.4303 57.6846C40.4936 57.6924 40.557 57.6976 40.6204 57.7028H40.6653V55.1965H42.3817V61.1699C42.2787 61.1699 42.1757 61.1699 42.0727 61.1673C41.9671 61.1673 41.8641 61.1647 41.7558 61.162H41.6898C41.6212 61.1594 41.5499 61.1568 41.4812 61.1542C41.3862 61.1516 41.2911 61.149 41.1907 61.1412C41.1432 61.1412 41.0957 61.1359 41.0482 61.1333C40.9452 61.1281 40.8395 61.1229 40.7392 61.1177H40.7154C40.7022 61.1177 40.689 61.1151 40.6758 61.1124L40.3405 61.0863C40.2533 61.0785 40.1688 61.0733 40.0817 61.0628C40.0315 61.0576 39.9787 61.055 39.9259 61.0472L39.2737 60.9767L39.2473 60.9715C39.1786 60.9636 39.11 60.9532 39.0413 60.9427C38.9674 60.9323 38.8934 60.9219 38.8221 60.9114L38.6769 60.8905C38.6082 60.8801 38.5369 60.8696 38.4683 60.8566C38.3732 60.8409 38.2782 60.8279 38.1646 60.807L38.0775 60.7913C37.927 60.7626 37.7765 60.7365 37.6259 60.7052C37.5969 60.6999 37.5626 60.6921 37.5203 60.6843L37.4569 60.6712C37.3038 60.6399 37.1586 60.606 37.008 60.572C36.9024 60.5511 36.7942 60.525 36.6912 60.4989C36.641 60.4859 36.5882 60.4754 36.538 60.4624L36.266 60.3945C36.0812 60.3475 35.899 60.2953 35.7142 60.2431C35.664 60.23 35.6138 60.2144 35.5663 60.1987C35.3973 60.1517 35.2309 60.0995 35.0698 60.0473C34.988 60.0238 34.9167 60.0003 34.8533 59.9768C34.65 59.9115 34.4467 59.841 34.2592 59.7731C34.0268 59.6896 33.7944 59.6008 33.5673 59.5121C33.364 59.4311 33.1607 59.3502 32.96 59.264C32.9151 59.2484 32.8729 59.2275 32.828 59.2092C32.6511 59.1309 32.4768 59.0526 32.3025 58.9743C32.2523 58.9534 32.2048 58.9325 32.1573 58.9064C31.9803 58.8228 31.8034 58.7367 31.6291 58.6505C31.5737 58.627 31.5209 58.6009 31.4707 58.5722C31.2859 58.4782 31.1037 58.3816 30.9267 58.285C29.757 57.6506 29.1945 56.3688 29.5246 55.0921L29.5193 55.0869Z" fill="#302B35"/>
<path d="M42.379 53.5725V14.6074C36.2634 14.6074 30.726 17.0589 26.7176 21.0194C22.7118 24.9824 20.2323 30.4571 20.2323 36.5036C20.2323 43.0356 23.1264 48.9019 27.7157 52.9119C29.0994 54.1233 30.6362 55.165 32.2972 56.003C32.313 56.0135 32.3289 56.0213 32.3447 56.0265C32.5401 56.1231 32.7382 56.2197 32.9362 56.3137C32.9494 56.3216 32.9653 56.3294 32.9811 56.3346C33.1686 56.4208 33.3561 56.5043 33.5462 56.5878C33.5594 56.5931 33.57 56.6009 33.5832 56.6035C33.7865 56.6897 33.9924 56.7732 34.1984 56.8541C34.4097 56.9377 34.6209 57.0186 34.8348 57.0943C35.0276 57.1648 35.2203 57.2301 35.4131 57.2927C35.4633 57.311 35.5161 57.3293 35.5689 57.3423C35.7379 57.3998 35.9095 57.452 36.0812 57.499C36.1102 57.5094 36.1393 57.5199 36.1709 57.5277C36.3452 57.5773 36.5195 57.6269 36.6938 57.6713C36.7439 57.6843 36.7941 57.6974 36.8443 57.7105C36.9314 57.7313 37.0212 57.7548 37.111 57.7757C37.1981 57.7992 37.2879 57.8201 37.3777 57.8384C37.5229 57.8723 37.6655 57.9037 37.8134 57.935C37.8583 57.9428 37.9032 57.9533 37.9481 57.9611C38.1171 57.995 38.2887 58.0264 38.4577 58.0577L38.4973 58.0655C38.5818 58.0812 38.6663 58.0942 38.7508 58.1073C38.8353 58.123 38.9224 58.1334 39.0069 58.1464C39.0941 58.1595 39.1812 58.1752 39.271 58.1856C39.3581 58.1987 39.4479 58.2117 39.5377 58.2222C39.5483 58.2222 39.5588 58.2248 39.5694 58.2274C39.6196 58.2326 39.6697 58.2378 39.7225 58.243C39.8123 58.2535 39.9047 58.2639 39.9972 58.2744C40.0051 58.2744 40.0104 58.277 40.0183 58.277C40.0922 58.2848 40.1662 58.2926 40.2375 58.2979C40.3563 58.3109 40.4725 58.3188 40.5913 58.3292C40.66 58.3344 40.726 58.3396 40.7946 58.3449C40.8078 58.3449 40.8184 58.3475 40.8316 58.3475C40.9425 58.3553 41.056 58.3605 41.1669 58.3657C41.2118 58.371 41.2567 58.371 41.3016 58.3736C41.3861 58.3788 41.4706 58.3814 41.5551 58.384C41.6396 58.3892 41.7241 58.3892 41.8086 58.3919C41.901 58.3945 41.9961 58.3971 42.0938 58.3971C42.1889 58.3971 42.2839 58.3971 42.379 58.3971V53.5725V53.5725Z" fill="#CCCCCC"/>
<path d="M42.379 53.5726V18.8813C37.4596 18.8813 33.0022 20.8551 29.7781 24.0427C28.875 24.9356 28.0696 25.9225 27.3804 26.9876C25.9703 29.1545 25.0276 31.6399 24.6949 34.3159C24.6051 35.0313 24.5576 35.7597 24.5576 36.5011C24.5576 37.2426 24.6025 37.9709 24.6923 38.6863C25.0276 41.3597 25.9703 43.8503 27.3778 46.0146C28.397 47.5862 29.6645 48.9882 31.1248 50.163C33.092 51.7503 35.4105 52.9304 37.9481 53.5726C39.3634 53.9303 40.8501 54.1209 42.379 54.1209V53.5726Z" fill="#3E9290"/>
<path d="M25.7459 47.4659C27.5601 47.4659 29.0308 42.5578 29.0308 36.5034C29.0308 30.4491 27.5601 25.541 25.7459 25.541C23.9317 25.541 22.461 30.4491 22.461 36.5034C22.461 42.5578 23.9317 47.4659 25.7459 47.4659Z" fill="#CCCCCC"/>
<path d="M23.9608 38.8032C25.2456 38.8032 26.2871 37.7735 26.2871 36.5032C26.2871 35.2329 25.2456 34.2031 23.9608 34.2031C22.6759 34.2031 21.6344 35.2329 21.6344 36.5032C21.6344 37.7735 22.6759 38.8032 23.9608 38.8032Z" fill="#3E9290"/>
</g>
<defs>
<clipPath id="clip0_135_620">
<rect width="84" height="84" fill="white"/>
</clipPath>
</defs>
</svg>
