<svg width="275" height="275" viewBox="0 0 275 275" fill="none" xmlns="http://www.w3.org/2000/svg">
<path d="M275.007 137.504C275.007 163.49 267.797 187.79 255.262 208.521C248.683 219.43 240.617 229.346 231.359 237.982C227.563 241.535 223.569 244.872 219.394 247.975C217.233 249.583 215.011 251.131 212.755 252.609C211.708 253.292 210.645 253.966 209.582 254.623C209.357 254.761 209.124 254.908 208.89 255.038C206.85 256.291 204.758 257.484 202.64 258.626C202.294 258.816 201.948 258.997 201.602 259.179C197.323 261.444 192.905 263.493 188.358 265.291C187.364 265.688 186.361 266.077 185.358 266.449H185.35C179.998 268.437 174.5 270.097 168.855 271.411C164.437 272.449 159.942 273.261 155.369 273.849C153.726 274.074 152.066 274.255 150.406 274.402C149.041 274.532 147.666 274.644 146.291 274.722C146.179 274.731 146.075 274.739 145.963 274.748C143.992 274.869 142.003 274.947 139.998 274.981C139.626 274.981 139.263 274.999 138.891 274.999C138.727 274.999 138.554 274.999 138.39 274.999C138.096 274.999 137.802 274.999 137.508 274.999H137.378C136.868 274.999 136.367 274.999 135.865 274.999C133.575 274.973 131.31 274.886 129.053 274.748C128.889 274.739 128.716 274.731 128.552 274.714C128.448 274.714 128.344 274.705 128.249 274.688C125.301 274.497 122.388 274.212 119.492 273.832C117.867 273.616 116.241 273.374 114.633 273.106C105.962 271.662 97.5507 269.397 89.5108 266.397C88.6203 266.069 87.7299 265.723 86.8481 265.369C82.9578 263.83 79.154 262.118 75.4539 260.234C74.4079 259.715 73.3791 259.179 72.359 258.626C71.6588 258.254 70.9672 257.865 70.2756 257.476C68.6503 256.568 67.0337 255.617 65.4516 254.64C64.3191 253.94 63.2039 253.231 62.0887 252.505C59.8496 251.035 57.6624 249.497 55.5185 247.906C52.6915 245.805 49.9424 243.592 47.2884 241.267C36.4907 231.879 27.1714 220.831 19.7366 208.521C7.20997 187.79 0 163.49 0 137.504C0 61.5681 61.5613 0 137.508 0C213.455 0 275.007 61.5681 275.007 137.504Z" fill="#E3E2FC"/>
<path d="M229.353 133.036C229.353 143.176 227.659 152.928 224.529 162.013C223.621 164.659 222.593 167.252 221.443 169.776C221.408 169.854 221.374 169.941 221.339 170.018C221.339 170.027 221.33 170.027 221.33 170.036C216.074 181.525 208.458 191.717 199.104 199.973C198.438 200.569 197.764 201.148 197.081 201.71C197.064 201.719 197.055 201.727 197.038 201.736C194.496 203.863 191.842 205.834 189.076 207.658C192.248 208.565 195.361 209.62 198.404 210.874C201.983 212.352 205.484 214.115 208.89 216.233V255.04C206.85 256.293 204.758 257.486 202.64 258.627C202.294 258.818 201.948 258.999 201.602 259.181C197.323 261.446 192.905 263.494 188.358 265.292C187.364 265.69 186.361 266.079 185.358 266.451H185.35C179.998 268.439 174.5 270.099 168.855 271.413C164.437 272.45 159.942 273.263 155.369 273.851C153.726 274.076 152.066 274.257 150.406 274.404C149.041 274.534 147.666 274.646 146.291 274.724C146.179 274.733 146.075 274.741 145.963 274.75C143.992 274.871 142.003 274.949 139.998 274.983V43.6924C176.048 43.6924 207.187 65.1487 221.296 95.9587H221.304C221.304 95.9587 221.322 96.0019 221.33 96.0192C226.483 107.309 229.353 119.836 229.353 133.036Z" fill="#62C2E8"/>
<path d="M139.998 43.6924V274.983C139.626 274.983 139.263 275 138.891 275C138.727 275 138.554 275 138.39 275C138.096 275 137.802 275 137.508 275H137.378C136.868 275 136.367 275 135.866 275C133.575 274.975 131.31 274.888 129.053 274.75C128.889 274.741 128.716 274.733 128.552 274.715C128.448 274.715 128.344 274.707 128.249 274.689C125.301 274.499 122.388 274.214 119.492 273.833C117.867 273.617 116.241 273.375 114.633 273.107C105.962 271.664 97.5508 269.399 89.5109 266.399C88.6204 266.07 87.73 265.725 86.8482 265.37C82.9579 263.831 79.1541 262.12 75.454 260.235C74.408 259.717 73.3792 259.181 72.3591 258.627C71.6589 258.256 70.9673 257.867 70.2757 257.478V217.331C74.019 214.859 77.8574 212.836 81.8081 211.159C84.8771 209.862 88.0153 208.764 91.2053 207.831C89.4763 206.698 87.7905 205.497 86.148 204.252L86.1047 204.217C85.0414 203.405 83.9867 202.583 82.9579 201.727C82.2663 201.148 81.5834 200.569 80.9091 199.973C71.5551 191.708 63.9388 181.516 58.6999 170.027C58.3801 169.318 58.0689 168.609 57.7576 167.892L57.7317 167.84C57.4378 167.14 57.1438 166.439 56.8758 165.739C56.3053 164.287 55.7693 162.826 55.2679 161.339C54.7665 159.861 54.3083 158.357 53.8933 156.844C53.6945 156.126 53.5043 155.409 53.3227 154.691C53.072 153.706 52.8473 152.712 52.6398 151.709C52.5014 151.104 52.3804 150.499 52.268 149.885C51.2133 144.43 50.6687 138.802 50.6687 133.036C50.6687 123.146 52.2853 113.62 55.2679 104.716C56.262 101.751 57.4118 98.8547 58.6999 96.0278C72.7827 65.1833 103.931 43.6924 139.998 43.6924Z" fill="#61AFD6"/>
<path d="M70.2756 217.331V257.477C68.6503 256.569 67.0337 255.618 65.4516 254.641C64.3191 253.941 63.2039 253.232 62.0887 252.506C59.8496 251.037 57.6624 249.498 55.5185 247.907C52.6915 245.806 49.9424 243.593 47.2884 241.268C54.4119 230.367 62.0887 222.759 70.2756 217.331V217.331Z" fill="#1C8FC9"/>
<path d="M231.359 237.984C227.564 241.537 223.57 244.874 219.394 247.977C217.233 249.585 215.011 251.133 212.755 252.611C211.709 253.294 210.645 253.968 209.582 254.625C209.357 254.764 209.124 254.911 208.89 255.04V216.234C216.87 221.196 224.374 228.103 231.359 237.984V237.984Z" fill="#3299D9"/>
<path d="M238.327 106.184C232.759 100.807 226.95 97.5397 221.296 95.9663C221.304 95.9836 221.313 96.0095 221.322 96.0268C226.474 107.308 229.344 119.843 229.344 133.044C229.344 146.244 226.474 158.753 221.33 170.017C226.976 168.435 232.768 165.168 238.327 159.791C240.522 157.664 241.724 154.708 241.724 151.647V114.319C241.724 111.259 240.522 108.302 238.327 106.176V106.184Z" fill="#3299D9"/>
<path d="M50.6687 133.036C50.6687 119.844 53.5389 107.318 58.6913 96.028V96.0107C53.1066 97.6014 47.3663 100.86 41.8594 106.177C39.6636 108.304 38.4619 111.26 38.4619 114.32V151.648C38.4619 154.709 39.6636 157.665 41.8594 159.792C47.349 165.108 53.0807 168.367 58.6654 169.967C53.5302 158.711 50.6687 146.211 50.6687 133.045V133.036Z" fill="#1C8FC9"/>
<path d="M199.104 199.972C196.415 202.349 193.571 204.562 190.615 206.602C190.597 206.611 190.589 206.628 190.571 206.637C190.476 206.706 190.373 206.767 190.277 206.827C189.543 207.328 188.799 207.821 188.047 208.305C187.865 208.418 187.693 208.53 187.511 208.642C186.785 209.101 186.041 209.55 185.298 209.991C185.09 210.112 184.892 210.233 184.684 210.345C183.958 210.769 183.232 211.175 182.488 211.573C182.255 211.703 182.03 211.824 181.797 211.945C181.079 212.325 180.353 212.697 179.627 213.06C179.367 213.19 179.117 213.311 178.857 213.44C178.148 213.786 177.431 214.123 176.705 214.443C176.419 214.573 176.143 214.694 175.858 214.823C175.157 215.135 174.44 215.429 173.731 215.723C173.42 215.852 173.117 215.973 172.806 216.094C172.106 216.371 171.405 216.63 170.705 216.89C170.377 217.011 170.039 217.132 169.711 217.253C169.019 217.495 168.328 217.728 167.627 217.953C167.273 218.065 166.919 218.186 166.564 218.299C165.881 218.515 165.19 218.714 164.498 218.912C164.126 219.016 163.754 219.129 163.374 219.232C162.691 219.414 162.008 219.587 161.325 219.76C160.928 219.855 160.539 219.958 160.141 220.045C159.467 220.2 158.784 220.339 158.101 220.486C157.686 220.572 157.279 220.659 156.864 220.736C156.19 220.866 155.507 220.979 154.824 221.091C154.401 221.16 153.977 221.238 153.553 221.307C152.87 221.411 152.179 221.497 151.496 221.584C151.064 221.636 150.64 221.705 150.216 221.748C149.516 221.826 148.799 221.886 148.09 221.955C147.675 221.99 147.251 222.042 146.836 222.076C146.067 222.137 145.297 222.172 144.519 222.215C144.156 222.232 143.793 222.258 143.43 222.275C142.289 222.318 141.148 222.344 139.998 222.344C138.848 222.344 137.698 222.318 136.566 222.275C136.203 222.258 135.84 222.232 135.477 222.215C134.698 222.172 133.92 222.137 133.151 222.076C132.736 222.042 132.321 221.999 131.906 221.964C131.197 221.904 130.48 221.834 129.779 221.757C129.347 221.705 128.924 221.644 128.5 221.592C127.808 221.506 127.117 221.419 126.434 221.316C126.01 221.247 125.587 221.169 125.172 221.1C124.489 220.987 123.806 220.875 123.131 220.745C122.716 220.667 122.31 220.572 121.904 220.494C121.221 220.356 120.538 220.209 119.864 220.054C119.466 219.958 119.077 219.863 118.679 219.768C117.996 219.595 117.313 219.431 116.63 219.241C116.259 219.137 115.878 219.025 115.506 218.921C114.815 218.722 114.123 218.523 113.44 218.307C113.086 218.195 112.74 218.083 112.386 217.962C111.685 217.737 110.985 217.503 110.294 217.253C109.965 217.132 109.636 217.011 109.308 216.89C108.599 216.63 107.899 216.362 107.199 216.086C106.896 215.965 106.593 215.844 106.282 215.714C105.565 215.42 104.856 215.117 104.147 214.806C103.87 214.685 103.594 214.555 103.308 214.434C102.582 214.106 101.865 213.769 101.147 213.423C100.896 213.302 100.637 213.172 100.386 213.051C99.6515 212.688 98.9253 212.308 98.1991 211.927C97.9743 211.806 97.7496 211.685 97.5248 211.564C96.7813 211.158 96.0465 210.743 95.3117 210.32C95.1128 210.207 94.914 210.086 94.7238 209.974C93.9717 209.533 93.2282 209.075 92.4847 208.608C92.3118 208.504 92.1476 208.392 91.9747 208.288C91.2139 207.804 90.4618 207.303 89.7183 206.792C89.6319 206.732 89.5368 206.671 89.4503 206.611C89.433 206.602 89.4244 206.594 89.4157 206.576C86.4505 204.528 83.6149 202.323 80.9177 199.946C80.6669 200.456 80.4595 200.983 80.2866 201.536C78.8601 206.135 80.5546 211.054 84.514 213.777C100.905 225.076 120.088 231.041 140.007 231.041C159.925 231.041 179.117 225.068 195.508 213.777C199.467 211.046 201.17 206.127 199.735 201.528C199.562 200.975 199.346 200.447 199.104 199.946V199.972Z" fill="#3299D9"/>
<path d="M229.353 133.036C229.353 146.228 226.483 158.754 221.33 170.036C208.717 172.162 195.119 173.761 180.872 174.79C177.69 175.024 174.483 175.222 171.241 175.413C161.057 175.974 150.605 176.251 140.006 176.251C138.883 176.251 137.75 176.251 136.644 176.234C136.462 176.242 136.289 176.234 136.099 176.234C130.635 176.208 125.197 176.087 119.838 175.905C118.126 175.845 116.414 175.776 114.711 175.698C110.25 175.508 105.833 175.266 101.476 174.954C98.1385 174.73 94.8448 174.47 91.5856 174.176C80.0963 173.165 69.0652 171.773 58.7085 170.018C53.556 158.745 50.6859 146.219 50.6859 133.027C50.6859 119.835 53.556 107.309 58.7085 96.019C80.9868 92.2672 106.343 90.1579 132.771 89.838C134.906 89.8121 137.041 89.7861 139.194 89.7861H140.015C143.854 89.7861 147.675 89.8207 151.47 89.8985C155.317 89.9763 159.147 90.0801 162.95 90.2357C164.697 90.3048 166.452 90.3826 168.189 90.4691C173.506 90.7284 178.771 91.0656 183.949 91.4719C189.906 91.9473 195.758 92.5265 201.464 93.2008C208.311 93.9875 214.95 94.9211 221.339 95.9931C226.491 107.275 229.362 119.809 229.362 133.01L229.353 133.036Z" fill="#3C3642"/>
<path d="M201.455 93.2259L171.232 175.412C161.048 175.974 150.597 176.25 139.998 176.25C138.874 176.25 137.741 176.25 136.635 176.233L168.181 90.4941C173.497 90.7535 178.762 91.0906 183.941 91.4969C189.897 91.9724 195.75 92.5516 201.455 93.2259V93.2259Z" fill="white"/>
<path d="M151.461 89.9158L119.829 175.897C118.117 175.836 116.405 175.767 114.702 175.689C110.242 175.499 105.824 175.257 101.467 174.946L132.762 89.838C134.897 89.8121 137.033 89.7861 139.185 89.7861H140.006C143.845 89.7861 147.666 89.8207 151.461 89.8985V89.9158Z" fill="white"/>
<path d="M111.322 251.511H87.678C85.1363 251.511 83.0702 249.445 83.0702 246.903C83.0702 244.361 85.1363 242.295 87.678 242.295H111.322C113.864 242.295 115.93 244.361 115.93 246.903C115.93 249.445 113.864 251.511 111.322 251.511Z" fill="#1C8FC9"/>
<path d="M196.848 251.511H173.203C170.662 251.511 168.596 249.445 168.596 246.903C168.596 244.361 170.662 242.295 173.203 242.295H196.848C199.389 242.295 201.455 244.361 201.455 246.903C201.455 249.445 199.389 251.511 196.848 251.511Z" fill="#3299D9"/>
<path d="M115.93 269.901C115.93 271.145 115.429 272.278 114.633 273.108C105.962 271.664 97.5506 269.399 89.5107 266.399C88.6203 266.071 87.7298 265.725 86.848 265.371C87.116 265.319 87.3927 265.293 87.6779 265.293H111.322C113.864 265.293 115.93 267.35 115.93 269.901Z" fill="#1C8FC9"/>
<path d="M188.358 265.293C187.364 265.691 186.361 266.08 185.358 266.451H185.35C179.998 268.44 174.5 270.099 168.855 271.413C168.682 270.938 168.596 270.428 168.596 269.901C168.596 268.621 169.114 267.471 169.944 266.642C170.774 265.812 171.933 265.293 173.203 265.293H188.358Z" fill="#3299D9"/>
<path d="M136.566 222.301C136.203 222.284 135.84 222.258 135.477 222.241C134.698 222.197 133.92 222.163 133.151 222.102C132.736 222.068 132.321 222.024 131.906 221.99C131.197 221.929 130.48 221.86 129.779 221.782C129.347 221.731 128.924 221.67 128.5 221.618C127.808 221.532 127.117 221.445 126.434 221.342C126.01 221.272 125.587 221.195 125.172 221.125C124.489 221.013 123.806 220.901 123.131 220.771C122.716 220.693 122.31 220.598 121.904 220.52C121.221 220.382 120.538 220.235 119.864 220.079C119.466 219.984 119.077 219.889 118.679 219.794C117.996 219.621 117.313 219.457 116.63 219.267C116.259 219.163 115.878 219.051 115.506 218.947C114.815 218.748 114.123 218.549 113.44 218.333C113.086 218.221 112.74 218.108 112.386 217.987C111.685 217.763 110.985 217.529 110.294 217.279C109.965 217.157 109.636 217.036 109.308 216.915C108.599 216.656 107.899 216.388 107.199 216.111C106.896 215.99 106.593 215.869 106.282 215.74C105.565 215.446 104.856 215.143 104.147 214.832C103.87 214.711 103.594 214.581 103.308 214.46C102.582 214.132 101.865 213.795 101.147 213.449C100.896 213.328 100.637 213.198 100.386 213.077C99.6515 212.714 98.9253 212.334 98.1991 211.953C97.9743 211.832 97.7496 211.711 97.5248 211.59C96.7813 211.184 96.0465 210.769 95.3117 210.345C95.1128 210.233 94.914 210.112 94.7238 210C93.9717 209.559 93.2282 209.101 92.4847 208.634C92.3118 208.53 92.1476 208.418 91.9747 208.314C91.2139 207.83 90.4618 207.328 89.7183 206.818C89.6319 206.758 89.5368 206.697 89.4503 206.637C89.433 206.628 89.4244 206.62 89.4157 206.602C86.4505 204.553 83.6149 202.349 80.9177 199.972C80.6669 200.482 80.4595 201.009 80.2866 201.562C78.8601 206.161 80.5546 211.08 84.514 213.803C100.905 225.102 120.088 231.067 140.007 231.067V222.362C138.857 222.362 137.707 222.336 136.574 222.292L136.566 222.301Z" fill="#1C8FC9"/>
</svg>
