<svg width="84" height="84" viewBox="0 0 84 84" fill="none" xmlns="http://www.w3.org/2000/svg">
<g clip-path="url(#clip0_136_22)">
<path d="M75.531 67.2921C75.3134 67.5832 75.0905 67.8716 74.8624 68.1548C74.1807 69.0148 73.4623 69.8434 72.715 70.6457C72.597 70.7742 72.4764 70.9027 72.3532 71.0312C71.2441 72.1927 70.0668 73.2888 68.8292 74.3166C68.4202 74.6575 68.0059 74.9879 67.5838 75.313C67.4081 75.4493 67.2298 75.5831 67.0542 75.7142C66.8942 75.8322 66.7369 75.9501 66.577 76.0655C66.2099 76.3303 65.8376 76.5899 65.46 76.8443C64.8989 77.2218 64.3299 77.5889 63.7479 77.9403C63.7321 77.9508 63.7164 77.9586 63.7007 77.9691C62.5916 78.6404 61.4484 79.2618 60.2738 79.8282C60.2502 79.8413 60.2239 79.8518 60.2003 79.8622C59.7205 80.0982 59.2355 80.3185 58.7452 80.5309C58.6927 80.5545 58.6377 80.5781 58.5852 80.6017C58.0372 80.8376 57.4814 81.0605 56.9203 81.2729C56.131 81.5744 55.3287 81.8524 54.5185 82.1041C54.4818 82.1146 54.4451 82.1251 54.411 82.1382C53.8552 82.3086 53.2967 82.4686 52.7304 82.618C52.6019 82.6521 52.476 82.6836 52.3475 82.715C52.3056 82.7255 52.261 82.736 52.2191 82.7465C51.7235 82.8697 51.2253 82.9851 50.7219 83.09C50.09 83.2237 49.4529 83.3443 48.8105 83.4466C47.6044 83.6459 46.3773 83.7927 45.1319 83.8818C45.0742 83.8897 45.0139 83.8923 44.9562 83.895C44.9352 83.8976 44.9143 83.9002 44.8933 83.9002C44.8723 83.9028 44.8513 83.9028 44.8304 83.9054H44.8199C44.7727 83.9107 44.7229 83.9133 44.6757 83.9159C44.3794 83.9343 44.0831 83.9526 43.7921 83.9605C43.6898 83.9684 43.5902 83.971 43.4879 83.9736C42.683 84.0025 41.8833 84.0077 41.0888 83.992C40.8817 83.9893 40.6745 83.9841 40.4674 83.9762C40.3337 83.971 40.2 83.9658 40.0662 83.9579C39.9037 83.95 39.7437 83.9421 39.5838 83.9343C39.3898 83.9238 39.1984 83.9107 39.0043 83.8976C38.8129 83.8845 38.6189 83.8687 38.4275 83.8504C38.2571 83.8373 38.084 83.8215 37.9136 83.8058C37.7537 83.7901 37.5911 83.7743 37.4312 83.756C37.3709 83.7507 37.3079 83.7429 37.2476 83.735C36.7757 83.6852 36.3063 83.6249 35.837 83.5541C35.5407 83.5121 35.2471 83.4649 34.9534 83.4151C34.8118 83.3915 34.6729 83.3679 34.5313 83.3417C34.2114 83.284 33.8915 83.2237 33.5743 83.1555C33.3855 83.1188 33.1967 83.0795 33.0079 83.0349H33.0053C32.321 82.8855 31.6419 82.7203 30.9706 82.5367C28.8023 81.9468 26.7021 81.189 24.6805 80.2713C24.3344 80.114 23.9936 79.9514 23.6527 79.7862C23.443 79.6866 23.2358 79.5817 23.0287 79.4768C22.9081 79.4165 22.7875 79.3536 22.6669 79.2906C22.4728 79.191 22.2788 79.0887 22.0874 78.9839C22.0822 78.9812 22.0795 78.9812 22.0769 78.976C21.8829 78.8737 21.6889 78.7662 21.4948 78.6587C21.0072 78.386 20.5247 78.1028 20.0501 77.8118C19.2059 77.2926 18.3799 76.7446 17.5776 76.1704C17.478 76.0996 17.3784 76.0288 17.2787 75.9554C16.6468 75.4939 16.028 75.0167 15.4224 74.5211C15.2257 74.3586 15.0291 74.1934 14.8324 74.0282C13.6709 73.0449 12.5644 71.9961 11.5156 70.8896C11.395 70.7663 11.2797 70.6431 11.1643 70.5173C11.1302 70.4805 11.0961 70.4438 11.062 70.4045C10.5035 69.7988 9.96342 69.1748 9.44165 68.535C8.94348 67.9267 8.46628 67.3052 8.00481 66.6707C7.53286 66.0231 7.07926 65.3597 6.64401 64.6832C2.93392 58.9173 0.589885 52.1577 0.0969548 44.8316C-0.304206 38.9006 0.547933 33.174 2.42526 27.9116C3.13057 25.9319 3.98271 24.0178 4.96857 22.1824C11.5759 9.85874 24.1902 1.10895 39.1695 0.0968433C53.787 -0.889048 67.1643 5.72639 75.4261 16.5686C75.9558 17.2608 76.4618 17.9687 76.9469 18.695C80.8903 24.5973 83.389 31.5798 83.9029 39.1706C84.6109 49.6615 81.4042 59.5125 75.531 67.2921Z" fill="url(#paint0_linear_136_22)"/>
<path d="M74.8625 68.1547C74.1808 69.0147 73.4624 69.8433 72.7151 70.6456C72.5971 70.7741 72.4765 70.9026 72.3533 71.0311C71.2442 72.1926 70.0669 73.2886 68.8294 74.3165C68.4203 74.6574 68.0061 74.9877 67.5839 75.3129C67.4083 75.4492 67.23 75.5829 67.0543 75.7141C66.8944 75.832 66.737 75.95 66.5771 76.0654C66.21 76.3302 65.8377 76.5898 65.4601 76.8442C64.899 77.2217 64.3301 77.5888 63.748 77.9402C63.7323 77.9507 63.7165 77.9585 63.7008 77.969C62.5917 78.6403 61.4485 79.2617 60.2739 79.828C60.2503 79.8412 60.2241 79.8516 60.2005 79.8621L48.2443 75.0166C45.6354 73.9599 43.6008 71.8544 42.6307 69.2323C42.5468 69.0095 42.4733 68.784 42.4052 68.5532C42.1535 67.6906 42.025 66.8305 42.004 65.9836C41.9935 65.6008 42.0066 65.2232 42.0407 64.8483C42.219 62.908 42.9637 61.0909 44.1304 59.5989C45.3706 58.0126 47.0854 56.7933 49.1017 56.1876C49.6864 56.012 50.2973 55.8861 50.9292 55.8206C51.1835 55.7943 51.4405 55.776 51.7027 55.7681L52.4447 55.7471H52.4473L53.6167 55.713C54.9146 55.6763 56.1967 55.8887 57.3976 56.3371C57.6519 56.4289 57.901 56.5338 58.1449 56.6491C58.664 56.8903 59.1622 57.1788 59.6368 57.5118L74.8625 68.1547V68.1547Z" fill="#004AA0"/>
<path d="M53.8971 53.9692L49.3008 59.5988H27.8662L25.4881 53.8381L52.9401 53.7778L53.8971 53.9692Z" fill="#002B59"/>
<path d="M28.7525 28.8348C28.6529 25.6228 27.9659 22.4318 26.516 19.5633C25.7975 18.1421 24.9559 16.7917 24.0539 15.4807C22.8557 13.7397 24.3502 11.3903 26.4189 11.8308C32.3289 13.0973 37.9294 16.228 41.3537 21.147C40.8686 21.4773 40.2682 21.5717 39.6887 21.6635C36.8544 22.125 28.721 28.3733 28.7577 28.882V28.8348H28.7525Z" fill="url(#paint1_linear_136_22)"/>
<path d="M26.0859 13.7002C29.6151 14.867 32.7248 17.2609 34.7594 20.3707C34.8066 20.4441 34.8564 20.528 34.8407 20.6119C34.8171 20.7456 34.6572 20.8007 34.5261 20.8296C33.7499 21 32.9607 21.1573 32.2397 21.4877C31.7205 21.7263 31.4007 22.1091 30.9523 22.4264C30.3519 22.8485 30.3755 22.6099 30.2365 21.9623C30.0189 20.9397 29.7121 19.9354 29.3241 18.9679C28.9334 17.9977 28.4614 17.0617 27.9134 16.1702C27.57 15.6143 26.7231 13.9126 26.0859 13.7028V13.7002Z" fill="white"/>
<path d="M57.2743 36.1585C58.9077 33.3923 61.0473 30.9249 63.7007 29.1131C65.0143 28.2137 66.4013 27.435 67.8251 26.7191C69.7129 25.7726 69.5346 22.9932 67.513 22.3823C61.7237 20.6465 55.3078 20.691 49.9406 23.3524C50.2054 23.8742 50.6879 24.2465 51.1493 24.6084C53.4121 26.3783 57.5286 35.7705 57.2533 36.2005L57.2769 36.1611L57.2743 36.1585Z" fill="url(#paint2_linear_136_22)"/>
<path d="M66.9021 24.178C63.2471 23.5015 59.3692 24.0993 56.0891 25.8456C56.0131 25.8876 55.9292 25.9348 55.9003 26.0187C55.8584 26.1472 55.9685 26.2704 56.0708 26.3595C56.6686 26.8839 57.2847 27.4005 57.7567 28.0377C58.0975 28.4965 58.1919 28.9868 58.4331 29.4798C58.7557 30.1379 58.85 29.9203 59.2827 29.4169C59.967 28.625 60.7169 27.8934 61.5271 27.2327C62.3346 26.5693 63.1999 25.9767 64.1097 25.4602C64.6787 25.1377 66.2387 24.0548 66.8995 24.178H66.9021Z" fill="white"/>
<path d="M18.8179 37.1936C18.6186 37.4741 18.4167 37.7704 18.2306 38.0694C18.6606 38.1166 19.1037 38.0562 19.5127 37.8779C20.0633 38.8088 20.7083 39.6872 21.4268 40.5183C21.744 40.8854 22.0639 41.2368 22.4048 41.575C23.0104 42.2358 23.6397 42.8572 24.2611 43.4577C25.8159 44.9155 27.6067 46.3078 28.2072 48.3425C28.6241 49.7296 28.4222 51.2583 27.8375 52.6112C27.3524 53.7676 26.5947 54.8059 25.7819 55.7498C25.5721 56.012 25.4148 56.3188 25.3912 56.6597C25.2968 58.01 25.9837 59.8927 26.8385 60.9363C27.2816 61.4921 27.8637 61.9274 28.4563 62.3312C29.2612 62.8871 31.4348 71.6709 32.3551 72.0328C34.6625 72.9584 48.6638 66.7441 48.6454 66.6287C48.3518 63.8336 48.4409 56.5863 49.7834 54.132C50.3812 53.036 51.2281 51.5782 52.269 50.8492C53.2496 50.1675 55.1348 50.2094 56.333 49.9787C56.4327 49.9577 56.548 49.9394 56.6503 49.9184C57.3294 49.7925 58.0111 49.6667 58.7059 49.5461C58.7741 49.5303 58.8213 49.5277 58.8868 49.5146C59.17 49.4595 59.4977 49.3547 59.7967 49.352C60.0982 49.352 60.9765 49.5592 61.084 49.9368C60.9792 49.5461 60.8926 49.1449 60.8402 48.7359C60.8297 48.6546 60.8454 48.5313 60.9267 48.5208C60.9739 48.5182 61.0159 48.5444 61.0552 48.5707C61.1837 48.6834 61.3253 48.8145 61.4695 48.9299C61.3226 48.4501 61.1784 47.9702 61.0447 47.5087C61.4249 47.75 61.8025 48.0043 62.18 48.2586C61.8864 47.5507 61.6478 46.8244 61.4773 46.0719C61.7395 46.2187 62.0463 46.3131 62.3373 46.355C62.2036 45.8936 62.0542 45.4294 61.9231 44.9522C62.3557 45.0466 62.7647 45.2485 63.103 45.5238C62.6677 44.5117 61.9178 43.733 61.4747 42.7497C60.2214 40.0569 59.4112 37.2408 58.9943 34.367C58.8868 33.6748 58.8134 32.9773 58.7584 32.2668L58.7269 31.8315L58.5591 29.5293C58.483 27.6126 57.5837 25.8165 56.0682 24.6392L52.9428 22.1614C52.7986 22.046 52.6544 21.9306 52.5076 21.8284C48.6533 18.9258 43.8787 17.5754 39.049 17.9792L38.0317 18.0657L35.8843 18.2414C32.03 18.2309 30.053 23.2889 30.053 23.2889L30.0032 23.3544C29.6519 23.8657 29.2874 24.356 28.9099 24.8437C28.3435 25.5674 27.7431 26.2518 27.1138 26.9125C24.9979 29.1832 22.5201 31.1393 19.8536 32.7781C19.6307 32.9092 19.4367 33.0507 19.2086 33.1976C19.4498 33.2448 19.6858 33.3051 19.8982 33.4073C19.6727 33.8557 19.3659 34.2516 18.9805 34.5794C19.2689 34.6843 19.6045 34.6764 19.8903 34.5453C19.3449 35.0068 18.81 35.4866 18.2673 35.9455C18.5374 36.0635 18.831 36.1526 19.1089 36.1762C18.6501 36.4227 18.2463 36.7609 17.9107 37.149C18.2122 37.2093 18.5111 37.2093 18.8179 37.191V37.1936Z" fill="url(#paint3_linear_136_22)"/>
<path d="M59.4191 55.0705L52.9402 53.7778L39.1827 67.7507L59.4191 55.0705Z" fill="#004AA0"/>
<path d="M42.641 36.1345C42.7564 37.1598 42.4968 36.6353 43.3096 37.2227C45.457 38.7697 47.3475 39.9024 49.1802 41.9371C50.5331 43.4396 51.8756 44.921 53.2154 46.4182C54.3114 47.6322 55.4179 48.8646 56.6476 49.9239C57.3267 49.798 58.0084 49.6722 58.7032 49.5516C58.7714 49.5358 58.8186 49.5332 58.8841 49.5201C59.1673 49.465 59.495 49.3602 59.7939 49.3575C60.0955 49.3575 60.9738 49.5647 61.0813 49.9422C60.9764 49.5516 60.8899 49.1504 60.8375 48.7413C60.827 48.6601 60.8427 48.5368 60.924 48.5263C60.9712 48.5237 61.0132 48.5499 61.0525 48.5762C61.181 48.6889 61.3225 48.82 61.4668 48.9354C61.3199 48.4555 61.1757 47.9757 61.042 47.5142C61.4222 47.7555 61.7997 48.0098 62.1773 48.2641C61.8836 47.5562 61.645 46.8299 61.4746 46.0773C61.7368 46.2242 62.0436 46.3186 62.3346 46.3605C62.2009 45.899 62.0515 45.4349 61.9204 44.9577C62.353 45.0521 62.762 45.254 63.1002 45.5293C62.665 44.5172 61.9151 43.7385 61.472 42.7552C60.2187 40.0624 59.4085 37.2463 58.9916 34.3725C58.8841 33.6803 58.9392 34.3909 58.8841 33.6803C58.8841 33.6803 53.648 28.3995 50.7429 27.4031C49.8986 27.1225 48.9967 26.8761 48.1236 27.015C46.5451 27.2563 45.4098 28.6564 44.639 30.0566C43.9284 31.344 43.3909 32.7075 43.0291 34.1156C42.877 34.7081 42.5755 35.5157 42.6384 36.1319L42.641 36.1345Z" fill="white"/>
<path d="M18.8178 37.1939C18.6186 37.4745 18.4167 37.7708 18.2305 38.0697C18.6605 38.1169 19.1036 38.0566 19.5127 37.8783C20.0633 38.8091 20.7083 39.6875 21.4267 40.5187C21.744 40.8858 22.0638 41.2371 22.4047 41.5754C24.3554 41.3027 26.2511 40.6341 28.1416 39.9812C30.0504 39.3178 31.9408 38.6649 33.8365 37.9963C36.4217 37.0943 38.6242 37.013 41.2514 36.6905C42.2478 36.5673 41.7811 36.9055 42.3631 36.0586C42.7145 35.5473 42.8403 34.6951 42.9924 34.1025C43.3542 32.6945 43.5378 31.2393 43.5351 29.7683C43.5351 28.1715 43.2284 26.4016 41.962 25.4288C41.2488 24.8808 40.3547 24.6684 39.479 24.5058C35.9839 23.8923 31.8884 24.6291 28.4221 25.4472C28.4221 25.4472 27.7457 26.2521 27.1164 26.9129C25.0005 29.1836 22.5227 31.1396 19.8561 32.7784C19.6333 32.9095 19.4393 33.0511 19.2111 33.1979C19.4524 33.2451 19.6883 33.3054 19.9007 33.4077C19.6752 33.8561 19.3685 34.252 18.983 34.5798C19.2714 34.6846 19.6071 34.6768 19.8929 34.5457C19.3475 35.0072 18.8126 35.487 18.2699 35.9458C18.5399 36.0638 18.8336 36.153 19.1115 36.1766C18.6527 36.4231 18.2489 36.7613 17.9133 37.1494C18.2148 37.2097 18.5137 37.2097 18.8205 37.1913L18.8178 37.1939Z" fill="white"/>
<path d="M18.6396 55.548L25.4882 53.8384L39.1828 67.751L18.6396 55.548Z" fill="#004AA0"/>
<path d="M63.7479 77.9404C63.7322 77.9509 63.7164 77.9588 63.7007 77.9693C62.5916 78.6405 61.4484 79.262 60.2738 79.8283C60.2502 79.8414 60.224 79.8519 60.2004 79.8624C59.7205 80.0984 59.2355 80.3186 58.7452 80.531C58.6927 80.5546 58.6377 80.5782 58.5852 80.6018C58.0372 80.8378 57.4814 81.0607 56.9203 81.2731C56.1311 81.5746 55.3287 81.8525 54.5186 82.1043C54.4818 82.1147 54.4451 82.1252 54.4111 82.1383C53.8552 82.3088 53.2967 82.4687 52.7304 82.6182C52.6019 82.6523 52.476 82.6837 52.3476 82.7152C52.3056 82.7257 52.261 82.7362 52.2191 82.7466C51.7235 82.8699 51.2254 82.9853 50.7219 83.0901C50.0901 83.2239 49.4529 83.3445 48.8105 83.4467C47.6044 83.646 46.3773 83.7929 45.1319 83.882C45.0742 83.8899 45.0139 83.8925 44.9562 83.8951C44.9353 83.8977 44.9143 83.9004 44.8933 83.9004C44.8723 83.903 44.8514 83.903 44.8304 83.9056H44.8199C44.7727 83.9108 44.7229 83.9135 44.6757 83.9161C44.3794 83.9344 44.0831 83.9528 43.7921 83.9607C43.6898 83.9685 43.5902 83.9712 43.4879 83.9738C42.683 84.0026 41.8833 84.0079 41.0888 83.9921C40.8817 83.9895 40.6746 83.9843 40.4674 83.9764C40.3337 83.9711 40.2 83.9659 40.0663 83.958C39.9037 83.9502 39.7438 83.9423 39.5838 83.9344C39.3898 83.9239 39.1984 83.9108 39.0044 83.8977C38.813 83.8846 38.6189 83.8689 38.4275 83.8505C38.2571 83.8374 38.0841 83.8217 37.9136 83.806C37.7537 83.7902 37.5911 83.7745 37.4312 83.7561C37.3709 83.7509 37.308 83.743 37.2477 83.7352C36.7757 83.6853 36.3064 83.625 35.837 83.5542C35.5407 83.5123 35.2471 83.4651 34.9534 83.4153C34.8118 83.3917 34.6729 83.3681 34.5313 83.3419C34.2114 83.2842 33.8915 83.2239 33.5743 83.1557C33.3855 83.119 33.1967 83.0797 33.0079 83.0351H33.0053C32.321 82.8856 31.6419 82.7204 30.9707 82.5369C28.8023 81.9469 26.7021 81.1892 24.6806 80.2714C24.3345 80.1141 23.9936 79.9515 23.6527 79.7864C23.443 79.6867 23.2359 79.5818 23.0287 79.477C22.9081 79.4166 22.7875 79.3537 22.6669 79.2908C22.4729 79.1912 22.2788 79.0889 22.0874 78.984C22.0822 78.9814 22.0796 78.9814 22.0769 78.9761C21.8829 78.8739 21.6889 78.7664 21.4949 78.6589C21.0072 78.3862 20.5247 78.103 20.0502 77.812C19.2059 77.2928 18.38 76.7448 17.5776 76.1706C17.478 76.0998 17.3784 76.029 17.2787 75.9555C16.6468 75.4941 16.0281 75.0168 15.4224 74.5213C15.2257 74.3587 15.0291 74.1935 14.8324 74.0283C13.6709 73.0451 12.5644 71.9962 11.5157 70.8897C11.395 70.7665 11.2797 70.6433 11.1643 70.5174C11.1302 70.4807 11.0961 70.444 11.0621 70.4047L9.81662 62.4546L9.78253 62.237L20.6375 56.7359L20.7319 56.6887L26.2118 59.9741L38.3908 67.2766L39.1827 67.7512L39.8775 67.3159L42.0039 65.9839L48.5247 61.8987L57.3975 56.3374L57.8852 56.0332C57.9717 56.2377 58.0608 56.4422 58.1447 56.6494C60.9974 63.4589 62.88 70.6275 63.7479 77.9404V77.9404Z" fill="#002B59"/>
<path d="M48.724 29.9703C49.4949 29.6425 50.3208 29.4039 51.1572 29.4354C52.4184 29.4852 53.5799 30.1434 54.5605 30.9378C56.0393 32.1361 57.2323 33.6857 58.0137 35.4215C58.4909 36.4809 58.8134 37.7001 58.4201 38.7935C58.0268 39.8869 56.9622 40.6394 55.8322 40.9069C54.7021 41.1743 53.5144 41.0222 52.3843 40.7522C50.507 40.3038 48.724 39.5303 47.0276 38.6204C46.0313 38.0855 43.9127 37.2648 43.4381 36.1059C42.4575 33.7146 46.9725 30.715 48.7266 29.9703H48.724Z" fill="#FFAA01"/>
<path d="M39.597 27.6289C39.0805 26.9707 38.4722 26.365 37.7223 25.9901C36.5922 25.4264 35.2576 25.4447 34.0148 25.6676C32.1427 26.0058 30.3519 26.7898 28.8312 27.933C27.903 28.6305 27.0325 29.5456 26.8516 30.6914C26.6707 31.8399 27.2423 33.0119 28.1023 33.7907C28.9623 34.5694 30.0792 35.0099 31.1988 35.3167C33.0604 35.828 34.9928 36.0089 36.9199 36.0299C38.05 36.0404 40.3023 36.3419 41.2777 35.5553C43.2887 33.9323 40.7769 29.1287 39.597 27.6289V27.6289Z" fill="#FFAA01"/>
<path d="M40.0873 70.2078L41.0889 83.9919C40.8817 83.9893 40.6746 83.9841 40.4675 83.9762C40.3337 83.971 40.2 83.9657 40.0663 83.9578C39.9037 83.95 39.7438 83.9421 39.5839 83.9342L38.6373 70.7244L38.3909 67.2816V67.2764L38.3856 67.2056L39.1827 67.751L39.8775 67.3078V67.3157L40.0873 70.2078V70.2078Z" fill="#004AA0"/>
<path d="M24.927 73.5461L24.6806 80.2717C24.3345 80.1143 23.9936 79.9518 23.6528 79.7866C23.443 79.6869 23.2359 79.582 23.0287 79.4772C22.9081 79.4169 22.7875 79.3539 22.6669 79.291C22.4729 79.1914 22.2788 79.0891 22.0874 78.9842C22.0822 78.9816 22.0796 78.9816 22.0769 78.9764C21.8829 78.8741 21.6889 78.7666 21.4949 78.6591C21.0072 78.3864 20.5247 78.1032 20.0502 77.8122C19.2059 77.293 18.38 76.745 17.5777 76.1708C17.478 76.1 17.3784 76.0292 17.2787 75.9558C16.6469 75.4943 16.0281 75.0171 15.4224 74.5215C15.2257 74.3589 15.0291 74.1937 14.8325 74.0285C13.6709 73.0453 12.5644 71.9965 11.5157 70.8899C11.395 70.7667 11.2797 70.6435 11.1643 70.5176C11.1302 70.4809 11.0961 70.4442 11.0621 70.4049C10.5036 69.7992 9.96345 69.1751 9.44168 68.5354C8.94351 67.927 8.46631 67.3056 8.00484 66.6711C7.53289 66.0234 7.07929 65.3601 6.64404 64.6836C7.57746 63.7055 8.65771 62.9635 9.81662 62.4548C14.0327 60.5958 19.2531 61.8177 22.0874 65.9369L23.1729 67.5128C24.3895 69.2826 25.0057 71.3986 24.927 73.5461V73.5461Z" fill="#004AA0"/>
<path d="M46.6448 41.3708C47.1115 43.4291 46.734 45.7679 44.9248 46.9819C44.0255 47.585 42.8744 47.8446 41.7286 47.9783C40.4203 48.1304 39.0542 48.133 37.7616 47.7712C36.4664 47.4093 35.2471 46.6489 34.6021 45.5818C33.7185 44.116 34.0489 42.3829 34.6284 40.8909C35.2891 39.1892 36.2959 37.5399 37.9478 36.52C42.371 33.7878 45.7665 37.5085 46.6422 41.3681L46.6448 41.3708Z" fill="white"/>
<path d="M45.9159 25.8588C45.9526 25.5075 45.9684 25.1351 45.8111 24.8179C45.6537 24.5006 45.2657 24.2699 44.9406 24.4062C44.66 24.5216 44.5315 24.8441 44.4398 25.1351C43.8996 26.8631 43.627 28.6592 43.3543 30.4448C43.0737 32.2802 42.6752 34.0501 42.2426 35.8488C42.7066 36.1582 43.1629 34.2651 43.3045 33.9059C43.6532 33.0301 44.0255 32.1622 44.3768 31.2891C45.0795 29.5428 45.7193 27.7467 45.9133 25.8615L45.9159 25.8588Z" fill="#FFAA01"/>
<path d="M39.4868 34.7026C39.243 34.9124 39.1722 35.2585 39.1564 35.581C39.104 36.6849 39.5235 37.7495 39.9352 38.7747C40.1344 39.2703 40.436 39.8445 40.9682 39.8759C41.2383 39.8917 41.49 39.7553 41.726 39.6216C42.6908 39.0788 46.262 37.3614 44.8854 36.0451C44.3191 35.505 39.9614 34.2936 39.4842 34.7L39.4868 34.7026Z" fill="#1D2939"/>
<path d="M38.2755 28.6799C38.0238 28.2761 37.6804 27.8907 37.2215 27.7674C36.7364 27.6389 36.2068 27.833 35.8397 28.1765C35.5225 28.4727 35.3258 28.8739 35.179 29.2856C35.2577 29.3302 35.3442 29.3721 35.415 29.4167C35.7794 29.6396 36.1019 29.886 36.2514 30.1535C36.4008 30.4183 36.3458 30.7015 36.0233 30.8588C35.7349 30.9978 35.2865 31.0109 34.8486 30.9873C34.7831 32.5579 35.3153 34.2334 36.9672 34.5952C37.0878 34.6215 37.2136 34.6398 37.3316 34.611C37.4994 34.5716 37.6305 34.4458 37.7459 34.3199C39.1172 32.828 39.3453 30.4052 38.2755 28.6851V28.6799Z" fill="#1D2939"/>
<path d="M52.3004 31.957C52.2558 31.4824 52.1221 30.9842 51.7655 30.6696C51.3906 30.3366 50.8268 30.2763 50.347 30.4179C49.9301 30.5411 49.5762 30.8112 49.2615 31.1153C49.3113 31.1887 49.3716 31.2674 49.4162 31.3382C49.6417 31.7 49.8226 32.0671 49.8357 32.3713C49.8515 32.6754 49.6758 32.9062 49.3166 32.9009C48.9967 32.8957 48.5903 32.7095 48.2075 32.4919C47.4471 33.8685 47.1771 35.6043 48.4933 36.6662C48.5903 36.7422 48.6926 36.8157 48.8132 36.8419C48.981 36.8812 49.154 36.8288 49.314 36.7658C51.207 36.0422 52.4918 33.976 52.303 31.9596L52.3004 31.957Z" fill="#1D2939"/>
<path d="M35.4097 40.9253C35.6352 41.0406 35.8502 41.156 36.0783 41.2347C36.2986 41.3264 36.5293 41.3815 36.7548 41.4235C37.2058 41.4969 37.6489 41.4785 38.0658 41.3605C38.4827 41.2609 38.8786 41.0669 39.243 40.8256C39.424 40.705 39.6049 40.5792 39.7727 40.4376C39.8566 40.3668 39.9379 40.296 40.0165 40.2199C40.0899 40.1491 40.1791 40.06 40.2184 40.0076L40.6327 39.4727L41.4193 40.1727C41.4822 40.2304 41.574 40.3248 41.6474 40.4035L41.886 40.65C42.0459 40.8125 42.2033 40.9751 42.3632 41.1245C42.6804 41.4287 42.9951 41.7119 43.3176 41.94C43.6427 42.1629 43.96 42.37 44.3533 42.488C44.7466 42.6244 45.2185 42.6585 45.798 42.6506L45.8504 42.7424C45.4047 43.0046 44.8934 43.2012 44.3611 43.2012C43.8289 43.2143 43.3045 43.057 42.843 42.8079C42.3789 42.5588 41.9673 42.2206 41.6133 41.8404C41.2567 41.4576 40.9447 41.0433 40.6799 40.5897L40.8188 40.608C40.4465 40.9594 40.0296 41.2452 39.5813 41.4759C39.1329 41.7066 38.6479 41.8745 38.1418 41.9348C37.6384 41.9977 37.1193 41.9426 36.6394 41.7774C36.1596 41.6096 35.727 41.3369 35.3468 41.0092L35.415 40.9305L35.4097 40.9253Z" fill="#1D2939"/>
</g>
<defs>
<linearGradient id="paint0_linear_136_22" x1="24.2453" y1="3.92766" x2="59.7564" y2="80.0764" gradientUnits="userSpaceOnUse">
<stop stop-color="#038C8C"/>
<stop offset="1" stop-color="#5BDCC6"/>
</linearGradient>
<linearGradient id="paint1_linear_136_22" x1="23.6265" y1="20.3289" x2="41.3511" y2="20.3289" gradientUnits="userSpaceOnUse">
<stop stop-color="#FEDF89"/>
<stop offset="1" stop-color="#F79009"/>
</linearGradient>
<linearGradient id="paint2_linear_136_22" x1="49.938" y1="28.6962" x2="69.1413" y2="28.6962" gradientUnits="userSpaceOnUse">
<stop stop-color="#FEDF89"/>
<stop offset="1" stop-color="#F79009"/>
</linearGradient>
<linearGradient id="paint3_linear_136_22" x1="17.9107" y1="45.0204" x2="63.1003" y2="45.0204" gradientUnits="userSpaceOnUse">
<stop stop-color="#FEDF89"/>
<stop offset="1" stop-color="#F79009"/>
</linearGradient>
<clipPath id="clip0_136_22">
<rect width="84" height="84" fill="white"/>
</clipPath>
</defs>
</svg>
