<svg width="84" height="84" viewBox="0 0 84 84" fill="none" xmlns="http://www.w3.org/2000/svg">
<g clip-path="url(#clip0_136_49)">
<path d="M84 42C84 57.9989 75.0563 71.9065 61.8956 78.9962C55.9754 82.1886 49.1996 84 42.0013 84C34.8031 84 28.0246 82.1886 22.1018 78.9962C8.9437 71.9038 0 57.9962 0 42C0 18.8057 18.8037 0 42.0013 0C65.199 0 84 18.8057 84 42Z" fill="#FEB173"/>
<path d="M61.8956 78.9966C55.9754 82.1889 49.1996 84.0003 42.0013 84.0003V64.4658H47.3776V74.3651C51.1352 75.1942 54.8082 76.1897 58.3334 77.4915C59.1018 77.737 59.9468 78.0592 60.842 78.4737C60.8526 78.479 60.8658 78.4843 60.879 78.4896C61.2117 78.648 61.5497 78.8144 61.8956 78.9966Z" fill="#08BED0"/>
<path d="M42.0013 64.4658V84.0003C34.8031 84.0003 28.0247 82.1889 22.1018 78.9966C22.4477 78.8144 22.7884 78.648 23.1211 78.4922C23.1343 78.4843 23.1475 78.479 23.158 78.4737C24.0532 78.0592 24.8982 77.737 25.6666 77.4915C29.1918 76.1897 32.8649 75.1942 36.6224 74.3651V64.4658H42.0013Z" fill="#0691AE"/>
<path d="M41.9987 12.1226C28.9568 12.5556 18.5211 22.9487 18.5211 35.7103C18.5211 48.4719 28.5607 70.808 41.9987 70.808V12.1226Z" fill="#0691AE"/>
<path d="M41.9988 12.1226C55.0407 12.5556 65.4763 22.9487 65.4763 35.7103C65.4763 48.4719 55.4368 70.808 41.9988 70.808V12.1226Z" fill="#08BED0"/>
<path d="M44.0028 49.2218C60.2372 54.1701 62.6322 39.2961 62.6322 39.2961C62.6322 39.2961 48.9513 32.9852 44.0028 49.2218Z" fill="#024C74"/>
<path d="M21.3677 39.2962C21.3677 39.2962 23.7601 54.1702 39.9971 49.2219C35.0486 32.988 21.3677 39.2962 21.3677 39.2962Z" fill="#024C74"/>
<path d="M41.1854 55.4903C41.1854 56.0263 40.7497 56.462 40.2137 56.462C39.6776 56.462 39.2419 56.0263 39.2419 55.4903C39.2419 54.9542 39.6776 54.5186 40.2137 54.5186C40.7497 54.5186 41.1854 54.9542 41.1854 55.4903Z" fill="#024C74"/>
<path d="M43.7863 56.462C44.323 56.462 44.7581 56.0269 44.7581 55.4903C44.7581 54.9536 44.323 54.5186 43.7863 54.5186C43.2496 54.5186 42.8146 54.9536 42.8146 55.4903C42.8146 56.0269 43.2496 56.462 43.7863 56.462Z" fill="#024C74"/>
</g>
<defs>
<clipPath id="clip0_136_49">
<rect width="84" height="84" fill="white"/>
</clipPath>
</defs>
</svg>
